<svg xmlns="http://www.w3.org/2000/svg" xmlns:xlink="http://www.w3.org/1999/xlink" version="1.1" data-diagram-type="CLASS" style="width:2012px;height:1755px;background:#FFFFFF;" width="2012px" height="1755px" viewBox="0 0 2012 1755" zoomAndPan="magnify" preserveAspectRatio="none" contentStyleType="text/css"><?plantuml 1.2026.7beta8?><defs/><g font-family="sans-serif" lengthAdjust="spacing"><g class="title" data-source-line="5"><text x="931.09" y="22.995" fill="#000" font-size="14" textLength="143.356" font-weight="700">NBH Entity Modell</text><text x="759.067" y="39.292" fill="#000" font-size="14" textLength="487.402" font-weight="700">Generiert mit Xtext DataModeler am 2026-07-23 um 16:07:18</text></g><!--class Association--><g class="entity" data-qualified-name="Association" id="ent0001" data-source-line="10"><rect x="1133.85" y="60.594" width="257.643" height="227.266" fill="#F1F1F1" style="stroke:#181818;stroke-width:0.5;" rx="2.5" ry="2.5"/><ellipse cx="1218.564" cy="76.594" rx="11" ry="11" fill="#ADD1B2" style="stroke:#181818;stroke-width:1;"/><path d="M1222.674,82.594 L1214.955,82.594 L1214.955,70.203 L1222.674,70.203 L1222.674,72.359 L1217.408,72.359 L1217.408,75.031 L1222.174,75.031 L1222.174,77.188 L1217.408,77.188 L1217.408,80.438 L1222.674,80.438 L1222.674,82.594 Z " fill="#000"/><text x="1239.064" y="81.44" fill="#000" font-size="14" textLength="79.714">Association</text><line x1="1134.85" y1="92.594" x2="1390.493" y2="92.594" style="stroke:#181818;stroke-width:0.5;"/><text x="1139.85" y="109.589" fill="#000" font-size="14" textLength="245.643">Basisinformationen zum Verein, da</text><text x="1139.85" y="125.886" fill="#000" font-size="14" textLength="197.189">fehlt sicher noch einiges, zB</text><text x="1139.85" y="142.183" fill="#000" font-size="14" textLength="176.791">Vereinsnummer aus dem</text><text x="1139.85" y="158.479" fill="#000" font-size="14" textLength="106.914">Vereinsregister</text><line x1="1134.85" y1="165.781" x2="1390.493" y2="165.781" style="stroke:#181818;stroke-width:1;stroke-dasharray:1,2;"/><text x="1139.85" y="182.776" fill="#000" font-size="14" textLength="94.623">name : Name</text><text x="1139.85" y="199.073" fill="#000" font-size="14" textLength="146.815">mdDescription : Text</text><text x="1139.85" y="215.37" fill="#000" font-size="14" textLength="156.181">htmlDescription : Text</text><text x="1139.85" y="231.667" fill="#000" font-size="14" textLength="96.175">street : Name</text><text x="1139.85" y="247.964" fill="#000" font-size="14" textLength="138.223">number : LongCode</text><text x="1139.85" y="264.261" fill="#000" font-size="14" textLength="69.583">zip : Code</text><text x="1139.85" y="280.558" fill="#000" font-size="14" textLength="80.281">city : Name</text></g><!--class Offer--><g class="entity" data-qualified-name="Offer" id="ent0002" data-source-line="24"><rect x="539.48" y="544.124" width="246.377" height="129.484" fill="#F1F1F1" style="stroke:#181818;stroke-width:0.5;" rx="2.5" ry="2.5"/><ellipse cx="640.795" cy="560.124" rx="11" ry="11" fill="#ADD1B2" style="stroke:#181818;stroke-width:1;"/><path d="M644.905,566.124 L637.186,566.124 L637.186,553.733 L644.905,553.733 L644.905,555.889 L639.639,555.889 L639.639,558.561 L644.405,558.561 L644.405,560.718 L639.639,560.718 L639.639,563.968 L644.905,563.968 L644.905,566.124 Z " fill="#000"/><text x="661.295" y="564.97" fill="#000" font-size="14" textLength="35.246">Offer</text><line x1="540.48" y1="576.124" x2="784.857" y2="576.124" style="stroke:#181818;stroke-width:0.5;"/><text x="545.48" y="593.119" fill="#000" font-size="14" textLength="234.377">Angebote der Mitglieder, wird bei</text><text x="545.48" y="609.416" fill="#000" font-size="14" textLength="230.398">der Verbuchung von Zeitschecks</text><text x="545.48" y="625.713" fill="#000" font-size="14" textLength="74.58">verwendet</text><line x1="540.48" y1="633.014" x2="784.857" y2="633.014" style="stroke:#181818;stroke-width:1;stroke-dasharray:1,2;"/><text x="545.48" y="650.009" fill="#000" font-size="14" textLength="83.221">code : Code</text><text x="545.48" y="666.306" fill="#000" font-size="14" textLength="170.81">description : ShortString</text></g><!--class Role--><g class="entity" data-qualified-name="Role" id="ent0003" data-source-line="32"><rect x="839.42" y="60.594" width="244.497" height="227.266" fill="#F1F1F1" style="stroke:#181818;stroke-width:0.5;" rx="2.5" ry="2.5"/><ellipse cx="942.021" cy="76.594" rx="11" ry="11" fill="#ADD1B2" style="stroke:#181818;stroke-width:1;"/><path d="M946.13,82.594 L938.411,82.594 L938.411,70.203 L946.13,70.203 L946.13,72.359 L940.864,72.359 L940.864,75.031 L945.63,75.031 L945.63,77.188 L940.864,77.188 L940.864,80.438 L946.13,80.438 L946.13,82.594 Z " fill="#000"/><text x="962.521" y="81.44" fill="#000" font-size="14" textLength="30.796">Role</text><line x1="840.42" y1="92.594" x2="1082.917" y2="92.594" style="stroke:#181818;stroke-width:0.5;"/><text x="845.42" y="109.589" fill="#000" font-size="14" textLength="231.561">Rollen im Verein. Über die Rollen</text><text x="845.42" y="125.886" fill="#000" font-size="14" textLength="232.497">werden auch die Berechtigungen</text><text x="845.42" y="142.183" fill="#000" font-size="14" textLength="70.978">vergeben.</text><line x1="840.42" y1="149.484" x2="1082.917" y2="149.484" style="stroke:#181818;stroke-width:1;stroke-dasharray:1,2;"/><text x="845.42" y="166.479" fill="#000" font-size="14" textLength="154.403">isBoardMember : Bool</text><text x="845.42" y="182.776" fill="#000" font-size="14" textLength="123.218">isTreasurer : Bool</text><text x="845.42" y="199.073" fill="#000" font-size="14" textLength="123.102">isSecretary : Bool</text><text x="845.42" y="215.37" fill="#000" font-size="14" textLength="106.463">isAuditor : Bool</text><text x="845.42" y="231.667" fill="#000" font-size="14" textLength="139.781">isTimeKeeper : Bool</text><text x="845.42" y="247.964" fill="#000" font-size="14" textLength="100.29">isAdmin : Bool</text><text x="845.42" y="264.261" fill="#000" font-size="14" textLength="153.576">isMiscellaneous : Bool</text><text x="845.42" y="280.558" fill="#000" font-size="14" textLength="123.047">roleName : Name</text></g><!--class AmountDomainValue--><g class="entity" data-qualified-name="AmountDomainValue" id="ent0004" data-source-line="46"><rect x="1426.06" y="85.044" width="269.223" height="178.375" fill="#F1F1F1" style="stroke:#181818;stroke-width:0.5;" rx="2.5" ry="2.5"/><ellipse cx="1481.985" cy="101.044" rx="11" ry="11" fill="#ADD1B2" style="stroke:#181818;stroke-width:1;"/><path d="M1486.094,107.044 L1478.375,107.044 L1478.375,94.653 L1486.094,94.653 L1486.094,96.809 L1480.829,96.809 L1480.829,99.481 L1485.594,99.481 L1485.594,101.637 L1480.829,101.637 L1480.829,104.887 L1486.094,104.887 L1486.094,107.044 Z " fill="#000"/><text x="1502.485" y="105.89" fill="#000" font-size="14" textLength="148.873">AmountDomainValue</text><line x1="1427.06" y1="117.044" x2="1694.283" y2="117.044" style="stroke:#181818;stroke-width:0.5;"/><text x="1432.06" y="134.039" fill="#000" font-size="14" textLength="256.505">Fachliche konfigurierbare Parameter</text><text x="1432.06" y="150.336" fill="#000" font-size="14" textLength="225.764">für Kosten Mitgliedsbeitrag oder</text><text x="1432.06" y="166.633" fill="#000" font-size="14" textLength="257.223">Zeitschecks. Der Code wird in einem</text><text x="1432.06" y="182.929" fill="#000" font-size="14" textLength="105.034">ENUM definiert</text><line x1="1427.06" y1="190.231" x2="1694.283" y2="190.231" style="stroke:#181818;stroke-width:1;stroke-dasharray:1,2;"/><text x="1432.06" y="207.226" fill="#000" font-size="14" textLength="117.346">code : LongCode</text><text x="1432.06" y="223.523" fill="#000" font-size="14" textLength="114.051">amount : Money</text><text x="1432.06" y="239.82" fill="#000" font-size="14" textLength="116.621">validFrom : Date</text><text x="1432.06" y="256.117" fill="#000" font-size="14" textLength="97.727">validTo : Date</text></g><!--class Event--><g class="entity" data-qualified-name="Event" id="ent0005" data-source-line="57"><rect x="1729.81" y="125.784" width="267.726" height="96.891" fill="#F1F1F1" style="stroke:#181818;stroke-width:0.5;" rx="2.5" ry="2.5"/><ellipse cx="1839.37" cy="141.784" rx="11" ry="11" fill="#ADD1B2" style="stroke:#181818;stroke-width:1;"/><path d="M1843.479,147.784 L1835.76,147.784 L1835.76,135.393 L1843.479,135.393 L1843.479,137.549 L1838.213,137.549 L1838.213,140.221 L1842.979,140.221 L1842.979,142.377 L1838.213,142.377 L1838.213,145.627 L1843.479,145.627 L1843.479,147.784 Z " fill="#000"/><text x="1859.87" y="146.63" fill="#000" font-size="14" textLength="40.106">Event</text><line x1="1730.81" y1="157.784" x2="1996.536" y2="157.784" style="stroke:#181818;stroke-width:0.5;"/><text x="1735.81" y="174.779" fill="#000" font-size="14" textLength="255.726">Termine und Veranstaltungen, muss</text><text x="1735.81" y="191.076" fill="#000" font-size="14" textLength="198.276">noch ausgearbeitet werden!</text><line x1="1730.81" y1="198.377" x2="1996.536" y2="198.377" style="stroke:#181818;stroke-width:1;stroke-dasharray:1,2;"/><text x="1735.81" y="215.373" fill="#000" font-size="14" textLength="78.647">date : Date</text></g><!--class TextContent--><g class="entity" data-qualified-name="TextContent" id="ent0006" data-source-line="63"><rect x="1137.11" y="535.974" width="251.121" height="145.781" fill="#F1F1F1" style="stroke:#181818;stroke-width:0.5;" rx="2.5" ry="2.5"/><ellipse cx="1215.111" cy="551.974" rx="11" ry="11" fill="#ADD1B2" style="stroke:#181818;stroke-width:1;"/><path d="M1219.221,557.974 L1211.502,557.974 L1211.502,545.583 L1219.221,545.583 L1219.221,547.739 L1213.955,547.739 L1213.955,550.411 L1218.721,550.411 L1218.721,552.567 L1213.955,552.567 L1213.955,555.817 L1219.221,555.817 L1219.221,557.974 Z " fill="#000"/><text x="1235.611" y="556.82" fill="#000" font-size="14" textLength="86.618">TextContent</text><line x1="1138.11" y1="567.974" x2="1387.231" y2="567.974" style="stroke:#181818;stroke-width:0.5;"/><text x="1143.11" y="584.969" fill="#000" font-size="14" textLength="215.264">Texte für die HP. Erfassung als</text><text x="1143.11" y="601.266" fill="#000" font-size="14" textLength="239.121">MarkDown, angezeigt wird daraus</text><text x="1143.11" y="617.563" fill="#000" font-size="14" textLength="123.806">generiertes HTML</text><line x1="1138.11" y1="624.864" x2="1387.231" y2="624.864" style="stroke:#181818;stroke-width:1;stroke-dasharray:1,2;"/><text x="1143.11" y="641.859" fill="#000" font-size="14" textLength="173.024">contentCode : LongCode</text><text x="1143.11" y="658.156" fill="#000" font-size="14" textLength="98.021">mdText : Text</text><text x="1143.11" y="674.453" fill="#000" font-size="14" textLength="107.386">htmlText : Text</text></g><!--class RegistrationCode--><g class="entity" data-qualified-name="RegistrationCode" id="ent0007" data-source-line="72"><rect x="1423.3" y="535.974" width="256.747" height="145.781" fill="#F1F1F1" style="stroke:#181818;stroke-width:0.5;" rx="2.5" ry="2.5"/><ellipse cx="1486.977" cy="551.974" rx="11" ry="11" fill="#ADD1B2" style="stroke:#181818;stroke-width:1;"/><path d="M1491.086,557.974 L1483.367,557.974 L1483.367,545.583 L1491.086,545.583 L1491.086,547.739 L1485.821,547.739 L1485.821,550.411 L1490.586,550.411 L1490.586,552.567 L1485.821,552.567 L1485.821,555.817 L1491.086,555.817 L1491.086,557.974 Z " fill="#000"/><text x="1507.477" y="556.82" fill="#000" font-size="14" textLength="120.894">RegistrationCode</text><line x1="1424.3" y1="567.974" x2="1679.047" y2="567.974" style="stroke:#181818;stroke-width:0.5;"/><text x="1429.3" y="584.969" fill="#000" font-size="14" textLength="244.747">Einmal-Codes für die Registrierung</text><text x="1429.3" y="601.266" fill="#000" font-size="14" textLength="145.626">mit E-Mail und Code.</text><line x1="1424.3" y1="608.567" x2="1679.047" y2="608.567" style="stroke:#181818;stroke-width:1;stroke-dasharray:1,2;"/><text x="1429.3" y="625.563" fill="#000" font-size="14" textLength="83.221">code : Code</text><text x="1429.3" y="641.859" fill="#000" font-size="14" textLength="93.529">email : Name</text><text x="1429.3" y="658.156" fill="#000" font-size="14" textLength="158.601">expiresAt : Timestamp</text><text x="1429.3" y="674.453" fill="#000" font-size="14" textLength="135.372">failedAttempts : Int</text></g><!--class Member--><g class="entity" data-qualified-name="Member" id="ent0008" data-source-line="81"><rect x="820.91" y="364.864" width="281.527" height="488.016" fill="#F1F1F1" style="stroke:#181818;stroke-width:0.5;" rx="2.5" ry="2.5"/><ellipse cx="928.631" cy="380.864" rx="11" ry="11" fill="#ADD1B2" style="stroke:#181818;stroke-width:1;"/><path d="M932.74,386.864 L925.021,386.864 L925.021,374.473 L932.74,374.473 L932.74,376.629 L927.474,376.629 L927.474,379.301 L932.24,379.301 L932.24,381.458 L927.474,381.458 L927.474,384.708 L932.74,384.708 L932.74,386.864 Z " fill="#000"/><text x="949.131" y="385.71" fill="#000" font-size="14" textLength="57.586">Member</text><line x1="821.91" y1="396.864" x2="1101.437" y2="396.864" style="stroke:#181818;stroke-width:0.5;"/><text x="826.91" y="413.859" fill="#000" font-size="14" textLength="223.159">Die Mitglieder des Vereins. Eine</text><text x="826.91" y="430.156" fill="#000" font-size="14" textLength="269.527">Mitgliedsnummer muss bei Neuanlage</text><text x="826.91" y="446.453" fill="#000" font-size="14" textLength="219.037">automatisch vergeben werden.</text><line x1="821.91" y1="453.754" x2="1101.437" y2="453.754" style="stroke:#181818;stroke-width:1;stroke-dasharray:1,2;"/><text x="826.91" y="470.749" fill="#000" font-size="14" textLength="130.006">memberNmbr : Int</text><text x="826.91" y="487.046" fill="#000" font-size="14" textLength="153.104">salutation : LongCode</text><text x="826.91" y="503.343" fill="#000" font-size="14" textLength="110.954">title : LongCode</text><text x="826.91" y="519.64" fill="#000" font-size="14" textLength="125.535">institution : Name</text><text x="826.91" y="535.937" fill="#000" font-size="14" textLength="123.58">firstName : Name</text><text x="826.91" y="552.234" fill="#000" font-size="14" textLength="121.475">lastName : Name</text><text x="826.91" y="568.531" fill="#000" font-size="14" textLength="111.542">birthdate : Date</text><text x="826.91" y="584.828" fill="#000" font-size="14" textLength="93.529">email : Name</text><text x="826.91" y="601.124" fill="#000" font-size="14" textLength="183.634">phoneNumber : LongCode</text><text x="826.91" y="617.421" fill="#000" font-size="14" textLength="159.681">password : ShortString</text><text x="826.91" y="633.718" fill="#000" font-size="14" textLength="127.408">joiningDate : Date</text><text x="826.91" y="650.015" fill="#000" font-size="14" textLength="159.25">resignationDate : Date</text><text x="826.91" y="666.312" fill="#000" font-size="14" textLength="96.175">street : Name</text><text x="826.91" y="682.609" fill="#000" font-size="14" textLength="138.223">number : LongCode</text><text x="826.91" y="698.906" fill="#000" font-size="14" textLength="114.591">stair : LongCode</text><text x="826.91" y="715.203" fill="#000" font-size="14" textLength="115.356">door : LongCode</text><text x="826.91" y="731.499" fill="#000" font-size="14" textLength="69.583">zip : Code</text><text x="826.91" y="747.796" fill="#000" font-size="14" textLength="80.281">city : Name</text><text x="826.91" y="764.093" fill="#000" font-size="14" textLength="179.956">latitude : DoublePrecision</text><text x="826.91" y="780.39" fill="#000" font-size="14" textLength="192.213">longitude : DoublePrecision</text><text x="826.91" y="796.687" fill="#000" font-size="14" textLength="216.002">directDebitAuthorization : Bool</text><text x="826.91" y="812.984" fill="#000" font-size="14" textLength="176.976">isImportedMember : Bool</text><text x="826.91" y="829.281" fill="#000" font-size="14" textLength="164.404">isSystemAccount : Bool</text><text x="826.91" y="845.578" fill="#000" font-size="14" textLength="163.939">accumulatedHours : Int</text></g><!--class MembershipFee--><g class="entity" data-qualified-name="MembershipFee" id="ent0009" data-source-line="111"><rect x="929.47" y="1217.844" width="250.403" height="162.078" fill="#F1F1F1" style="stroke:#181818;stroke-width:0.5;" rx="2.5" ry="2.5"/><ellipse cx="994.517" cy="1233.844" rx="11" ry="11" fill="#ADD1B2" style="stroke:#181818;stroke-width:1;"/><path d="M998.627,1239.844 L990.908,1239.844 L990.908,1227.453 L998.627,1227.453 L998.627,1229.609 L993.361,1229.609 L993.361,1232.281 L998.127,1232.281 L998.127,1234.438 L993.361,1234.438 L993.361,1237.688 L998.627,1237.688 L998.627,1239.844 Z " fill="#000"/><text x="1015.017" y="1238.69" fill="#000" font-size="14" textLength="111.809">MembershipFee</text><line x1="930.47" y1="1249.844" x2="1178.873" y2="1249.844" style="stroke:#181818;stroke-width:0.5;"/><text x="935.47" y="1266.839" fill="#000" font-size="14" textLength="210.964">Dokumentation des jährlichen</text><text x="935.47" y="1283.136" fill="#000" font-size="14" textLength="238.403">Mitgliedsbeitrag. TransactionType</text><text x="935.47" y="1299.433" fill="#000" font-size="14" textLength="127.429">ist immer INCOME</text><line x1="930.47" y1="1306.734" x2="1178.873" y2="1306.734" style="stroke:#181818;stroke-width:1;stroke-dasharray:1,2;"/><text x="935.47" y="1323.729" fill="#000" font-size="14" textLength="101.069">forYear : YEAR</text><text x="935.47" y="1340.026" fill="#000" font-size="14" textLength="136.705">doNotCharge : Bool</text><text x="935.47" y="1356.323" fill="#000" font-size="14" textLength="159.626">transactionDate : Date</text><text x="935.47" y="1372.62" fill="#000" font-size="14" textLength="114.051">amount : Money</text></g><!--class TimeTransfer--><g class="entity" data-qualified-name="TimeTransfer" id="ent0010" data-source-line="121"><rect x="616.16" y="970.624" width="247.02" height="129.484" fill="#F1F1F1" style="stroke:#181818;stroke-width:0.5;" rx="2.5" ry="2.5"/><ellipse cx="688.898" cy="986.624" rx="11" ry="11" fill="#ADD1B2" style="stroke:#181818;stroke-width:1;"/><path d="M693.007,992.624 L685.288,992.624 L685.288,980.233 L693.007,980.233 L693.007,982.389 L687.742,982.389 L687.742,985.061 L692.507,985.061 L692.507,987.218 L687.742,987.218 L687.742,990.468 L693.007,990.468 L693.007,992.624 Z " fill="#000"/><text x="709.398" y="991.47" fill="#000" font-size="14" textLength="93.044">TimeTransfer</text><line x1="617.16" y1="1002.624" x2="862.18" y2="1002.624" style="stroke:#181818;stroke-width:0.5;"/><text x="622.16" y="1019.619" fill="#000" font-size="14" textLength="220.938">Zeitgutschrift von Mitglied A an</text><text x="622.16" y="1035.916" fill="#000" font-size="14" textLength="235.02">Mitglied B für erbrachte Leistung.</text><line x1="617.16" y1="1043.218" x2="862.18" y2="1043.218" style="stroke:#181818;stroke-width:1;stroke-dasharray:1,2;"/><text x="622.16" y="1060.213" fill="#000" font-size="14" textLength="146.337">dateOfService : Date</text><text x="622.16" y="1076.509" fill="#000" font-size="14" textLength="90.549">hours : Short</text><text x="622.16" y="1092.806" fill="#000" font-size="14" textLength="124.51">note : ShortString</text></g><!--class TimeCheque--><g class="entity" data-qualified-name="TimeCheque" id="ent0011" data-source-line="129"><rect x="1515.49" y="1225.994" width="260.363" height="145.781" fill="#F1F1F1" style="stroke:#181818;stroke-width:0.5;" rx="2.5" ry="2.5"/><ellipse cx="1597.258" cy="1241.994" rx="11" ry="11" fill="#ADD1B2" style="stroke:#181818;stroke-width:1;"/><path d="M1601.367,1247.994 L1593.649,1247.994 L1593.649,1235.603 L1601.367,1235.603 L1601.367,1237.759 L1596.102,1237.759 L1596.102,1240.431 L1600.867,1240.431 L1600.867,1242.587 L1596.102,1242.587 L1596.102,1245.837 L1601.367,1245.837 L1601.367,1247.994 Z " fill="#000"/><text x="1617.758" y="1246.84" fill="#000" font-size="14" textLength="88.327">TimeCheque</text><line x1="1516.49" y1="1257.994" x2="1774.853" y2="1257.994" style="stroke:#181818;stroke-width:0.5;"/><text x="1521.49" y="1274.989" fill="#000" font-size="14" textLength="230.556">Zeitscheck - zuerst angelegt und</text><text x="1521.49" y="1291.286" fill="#000" font-size="14" textLength="245.649">dann später verbucht vom Kassier.</text><text x="1521.49" y="1307.583" fill="#000" font-size="14" textLength="248.363">TransactionType ist immer INCOME</text><line x1="1516.49" y1="1314.884" x2="1774.853" y2="1314.884" style="stroke:#181818;stroke-width:1;stroke-dasharray:1,2;"/><text x="1521.49" y="1331.879" fill="#000" font-size="14" textLength="90.549">hours : Short</text><text x="1521.49" y="1348.176" fill="#000" font-size="14" textLength="159.626">transactionDate : Date</text><text x="1521.49" y="1364.473" fill="#000" font-size="14" textLength="114.051">amount : Money</text></g><!--class AccountingEntry--><g class="entity" data-qualified-name="AccountingEntry" id="ent0012" data-source-line="138"><rect x="1047.51" y="929.874" width="236.314" height="210.969" fill="#F1F1F1" style="stroke:#181818;stroke-width:0.5;" rx="2.5" ry="2.5"/><ellipse cx="1103.582" cy="945.874" rx="11" ry="11" fill="#ADD1B2" style="stroke:#181818;stroke-width:1;"/><path d="M1107.691,951.874 L1099.972,951.874 L1099.972,939.483 L1107.691,939.483 L1107.691,941.639 L1102.426,941.639 L1102.426,944.311 L1107.191,944.311 L1107.191,946.468 L1102.426,946.468 L1102.426,949.718 L1107.691,949.718 L1107.691,951.874 Z " fill="#000"/><text x="1124.082" y="950.72" fill="#000" font-size="14" textLength="115.671">AccountingEntry</text><line x1="1048.51" y1="961.874" x2="1282.824" y2="961.874" style="stroke:#181818;stroke-width:0.5;"/><text x="1053.51" y="978.869" fill="#000" font-size="14" textLength="158.799">Buchungsdatensatz zu</text><text x="1053.51" y="995.166" fill="#000" font-size="14" textLength="224.314">Zeitscheck-Kauf, Mitgliedschaft,</text><text x="1053.51" y="1011.463" fill="#000" font-size="14" textLength="163.68">Weihnachtsessen, usw.</text><line x1="1048.51" y1="1018.764" x2="1282.824" y2="1018.764" style="stroke:#181818;stroke-width:1;stroke-dasharray:1,2;"/><text x="1053.51" y="1035.759" fill="#000" font-size="14" textLength="181.966">accountableName : Name</text><text x="1053.51" y="1052.056" fill="#000" font-size="14" textLength="127.285">accountableId : ID</text><text x="1053.51" y="1068.353" fill="#000" font-size="14" textLength="162.88">transactionType : Code</text><text x="1053.51" y="1084.65" fill="#000" font-size="14" textLength="159.626">transactionDate : Date</text><text x="1053.51" y="1100.947" fill="#000" font-size="14" textLength="194.134">transactionAmount : Money</text><text x="1053.51" y="1117.244" fill="#000" font-size="14" textLength="157.965">accountingDate : Date</text><text x="1053.51" y="1133.541" fill="#000" font-size="14" textLength="170.81">description : ShortString</text></g><!--class Transaction--><g class="entity" data-qualified-name="Transaction" id="ent0013" data-source-line="151"><rect x="1214.39" y="1234.144" width="266.55" height="129.484" fill="#F1F1F1" style="stroke:#181818;stroke-width:0.5;" rx="2.5" ry="2.5"/><ellipse cx="1302.341" cy="1250.144" rx="11" ry="11" fill="#ADD1B2" style="stroke:#181818;stroke-width:1;"/><path d="M1306.451,1256.144 L1298.732,1256.144 L1298.732,1243.753 L1306.451,1243.753 L1306.451,1245.909 L1301.185,1245.909 L1301.185,1248.581 L1305.951,1248.581 L1305.951,1250.738 L1301.185,1250.738 L1301.185,1253.988 L1306.451,1253.988 L1306.451,1256.144 Z " fill="#000"/><text x="1322.841" y="1254.99" fill="#000" font-size="14" textLength="82.147">Transaction</text><line x1="1215.39" y1="1266.144" x2="1479.94" y2="1266.144" style="stroke:#181818;stroke-width:0.5;"/><text x="1220.39" y="1283.139" fill="#000" font-size="14" textLength="254.55">Allgemeine Einnahme oder Ausgabe</text><line x1="1215.39" y1="1290.441" x2="1479.94" y2="1290.441" style="stroke:#181818;stroke-width:1;stroke-dasharray:1,2;"/><text x="1220.39" y="1307.436" fill="#000" font-size="14" textLength="162.88">transactionType : Code</text><text x="1220.39" y="1323.733" fill="#000" font-size="14" textLength="159.626">transactionDate : Date</text><text x="1220.39" y="1340.029" fill="#000" font-size="14" textLength="114.051">amount : Money</text><text x="1220.39" y="1356.326" fill="#000" font-size="14" textLength="170.81">description : ShortString</text></g><!--class ImageGallery--><g class="entity" data-qualified-name="ImageGallery" id="ent0014" data-source-line="159"><rect x="297.38" y="117.634" width="224.577" height="113.188" fill="#F1F1F1" style="stroke:#181818;stroke-width:0.5;" rx="2.5" ry="2.5"/><ellipse cx="358.565" cy="133.634" rx="11" ry="11" fill="#ADD1B2" style="stroke:#181818;stroke-width:1;"/><path d="M362.674,139.634 L354.956,139.634 L354.956,127.243 L362.674,127.243 L362.674,129.399 L357.409,129.399 L357.409,132.071 L362.174,132.071 L362.174,134.227 L357.409,134.227 L357.409,137.477 L362.674,137.477 L362.674,139.634 Z " fill="#000"/><text x="379.065" y="138.48" fill="#000" font-size="14" textLength="93.707">ImageGallery</text><line x1="298.38" y1="149.634" x2="520.957" y2="149.634" style="stroke:#181818;stroke-width:0.5;"/><text x="303.38" y="166.629" fill="#000" font-size="14" textLength="165.313">Foto- oder Bildergalerie</text><line x1="298.38" y1="173.931" x2="520.957" y2="173.931" style="stroke:#181818;stroke-width:1;stroke-dasharray:1,2;"/><text x="303.38" y="190.926" fill="#000" font-size="14" textLength="120.415">eventDate : Date</text><text x="303.38" y="207.223" fill="#000" font-size="14" textLength="212.577">eventDescription : ShortString</text><text x="303.38" y="223.519" fill="#000" font-size="14" textLength="115.37">eventText : Text</text></g><!--class Image--><g class="entity" data-qualified-name="Image" id="ent0015" data-source-line="166"><rect x="314.73" y="519.684" width="189.878" height="178.375" fill="#F1F1F1" style="stroke:#181818;stroke-width:0.5;" rx="2.5" ry="2.5"/><ellipse cx="383.496" cy="535.684" rx="11" ry="11" fill="#ADD1B2" style="stroke:#181818;stroke-width:1;"/><path d="M387.605,541.684 L379.887,541.684 L379.887,529.293 L387.605,529.293 L387.605,531.449 L382.34,531.449 L382.34,534.121 L387.105,534.121 L387.105,536.277 L382.34,536.277 L382.34,539.527 L387.605,539.527 L387.605,541.684 Z " fill="#000"/><text x="403.996" y="540.53" fill="#000" font-size="14" textLength="43.846">Image</text><line x1="315.73" y1="551.684" x2="503.608" y2="551.684" style="stroke:#181818;stroke-width:0.5;"/><text x="320.73" y="568.679" fill="#000" font-size="14" textLength="141.777">Bild zu einer Galerie</text><line x1="315.73" y1="575.981" x2="503.608" y2="575.981" style="stroke:#181818;stroke-width:1;stroke-dasharray:1,2;"/><text x="320.73" y="592.976" fill="#000" font-size="14" textLength="177.878">imageName : ShortString</text><text x="320.73" y="609.273" fill="#000" font-size="14" textLength="104.453">imageSize : Int</text><text x="320.73" y="625.569" fill="#000" font-size="14" textLength="102.354">image : BYTEA</text><text x="320.73" y="641.866" fill="#000" font-size="14" textLength="129.739">thumbnail : BYTEA</text><text x="320.73" y="658.163" fill="#000" font-size="14" textLength="171.521">contentType : LongCode</text><text x="320.73" y="674.46" fill="#000" font-size="14" textLength="170.81">description : ShortString</text><text x="320.73" y="690.757" fill="#000" font-size="14" textLength="146.282">isGalleryCover : Bool</text></g><!--class DocumentGallery--><g class="entity" data-qualified-name="DocumentGallery" id="ent0016" data-source-line="177"><rect x="7" y="125.784" width="255.339" height="96.891" fill="#F1F1F1" style="stroke:#181818;stroke-width:0.5;" rx="2.5" ry="2.5"/><ellipse cx="69.224" cy="141.784" rx="11" ry="11" fill="#ADD1B2" style="stroke:#181818;stroke-width:1;"/><path d="M73.333,147.784 L65.615,147.784 L65.615,135.393 L73.333,135.393 L73.333,137.549 L68.068,137.549 L68.068,140.221 L72.833,140.221 L72.833,142.377 L68.068,142.377 L68.068,145.627 L73.333,145.627 L73.333,147.784 Z " fill="#000"/><text x="89.724" y="146.63" fill="#000" font-size="14" textLength="122.391">DocumentGallery</text><line x1="8" y1="157.784" x2="261.339" y2="157.784" style="stroke:#181818;stroke-width:0.5;"/><text x="13" y="174.779" fill="#000" font-size="14" textLength="200.313">Sammlung von Dokumenten</text><line x1="8" y1="182.081" x2="261.339" y2="182.081" style="stroke:#181818;stroke-width:1;stroke-dasharray:1,2;"/><text x="13" y="199.076" fill="#000" font-size="14" textLength="243.339">documentDescription : ShortString</text><text x="13" y="215.373" fill="#000" font-size="14" textLength="146.132">documentText : Text</text></g><!--class PdfDocument--><g class="entity" data-qualified-name="PdfDocument" id="ent0017" data-source-line="183"><rect x="43.26" y="544.124" width="182.81" height="129.484" fill="#F1F1F1" style="stroke:#181818;stroke-width:0.5;" rx="2.5" ry="2.5"/><ellipse cx="83.47" cy="560.124" rx="11" ry="11" fill="#ADD1B2" style="stroke:#181818;stroke-width:1;"/><path d="M87.579,566.124 L79.861,566.124 L79.861,553.733 L87.579,553.733 L87.579,555.889 L82.314,555.889 L82.314,558.561 L87.079,558.561 L87.079,560.718 L82.314,560.718 L82.314,563.968 L87.579,563.968 L87.579,566.124 Z " fill="#000"/><text x="103.072" y="564.97" fill="#000" font-size="14" textLength="94.787">PdfDocument</text><line x1="44.26" y1="576.124" x2="225.07" y2="576.124" style="stroke:#181818;stroke-width:0.5;"/><text x="49.26" y="593.119" fill="#000" font-size="14" textLength="104.665">PDF Dokument</text><line x1="44.26" y1="600.421" x2="225.07" y2="600.421" style="stroke:#181818;stroke-width:1;stroke-dasharray:1,2;"/><text x="49.26" y="617.416" fill="#000" font-size="14" textLength="156.974">pdfName : ShortString</text><text x="49.26" y="633.713" fill="#000" font-size="14" textLength="83.549">pdfSize : Int</text><text x="49.26" y="650.009" fill="#000" font-size="14" textLength="114.878">pdfData : BYTEA</text><text x="49.26" y="666.306" fill="#000" font-size="14" textLength="170.81">description : ShortString</text></g><!--class Accountable--><g class="entity" data-qualified-name="Accountable" id="ent0018" data-source-line="192"><rect x="1319.17" y="929.874" width="266.994" height="210.969" fill="#F1F1F1" style="stroke:#181818;stroke-width:0.5;" rx="2.5" ry="2.5"/><ellipse cx="1405.046" cy="945.874" rx="11" ry="11" fill="#B4A7E5" style="stroke:#181818;stroke-width:1;"/><path d="M1400.968,941.639 L1400.968,939.483 L1408.359,939.483 L1408.359,941.639 L1405.89,941.639 L1405.89,949.718 L1408.359,949.718 L1408.359,951.874 L1400.968,951.874 L1400.968,949.718 L1403.437,949.718 L1403.437,941.639 L1400.968,941.639 Z " fill="#000"/><text x="1425.546" y="950.72" fill="#000" font-size="14" textLength="86.741" font-style="italic">Accountable</text><line x1="1320.17" y1="961.874" x2="1585.164" y2="961.874" style="stroke:#181818;stroke-width:0.5;"/><text x="1325.17" y="978.869" fill="#000" font-size="14" textLength="222.1">Interface für alles was verbucht</text><text x="1325.17" y="995.166" fill="#000" font-size="14" textLength="155.148">wird (Zeitscheck kauf,</text><text x="1325.17" y="1011.463" fill="#000" font-size="14" textLength="117.298">Mitgliedschaft...)</text><line x1="1320.17" y1="1018.764" x2="1585.164" y2="1018.764" style="stroke:#181818;stroke-width:1;stroke-dasharray:1,2;"/><text x="1325.17" y="1035.759" fill="#000" font-size="14" textLength="208.188">String getAccountableName()</text><text x="1325.17" y="1052.056" fill="#000" font-size="14" textLength="172.245">Long getAccountableId()</text><text x="1325.17" y="1068.353" fill="#000" font-size="14" textLength="229.831">Long getAccountableMemberId()</text><text x="1325.17" y="1084.65" fill="#000" font-size="14" textLength="196.629">String getTransactionType()</text><text x="1325.17" y="1100.947" fill="#000" font-size="14" textLength="223.966">LocalDate getTransactionDate()</text><text x="1325.17" y="1117.244" fill="#000" font-size="14" textLength="254.994">BigDecimal getTransactionAmount()</text><text x="1325.17" y="1133.541" fill="#000" font-size="14" textLength="219.789">String getTransactionISODate()</text></g><!--reverse link Role to Member--><g class="link" data-entity-1="ent0003" data-entity-2="ent0008" id="lnk20" data-source-line="206" data-link-type="dependency"><path d="M961.67,293.334 C961.67,317.124 961.67,338.074 961.67,364.584" style="stroke:#181818;stroke-width:1;stroke-dasharray:7,7;" fill="none" id="Role-backto-Member" codeLine="206"/><polygon points="961.67,288.334,957.67,297.334,961.67,293.334,965.67,297.334,961.67,288.334" fill="#181818" style="stroke:#181818;stroke-width:1;stroke-linejoin:miter;stroke-miterlimit:10;"/><text x="962.67" y="330.931" fill="#000" font-size="13" textLength="24.908">role</text></g><!--reverse link Member to MembershipFee--><g class="link" data-entity-1="ent0008" data-entity-2="ent0009" id="lnk22" data-source-line="207" data-link-type="dependency"><path d="M944.257,858.194 C943.657,949.624 950.2,1048.704 973.67,1140.844 C980.33,1167.004 991.99,1193.734 1004.41,1217.554" style="stroke:#181818;stroke-width:1;" fill="none" id="Member-backto-MembershipFee" codeLine="207"/><polygon points="944.29,853.194,940.231,862.167,944.257,858.194,948.231,862.22,944.29,853.194" fill="#181818" style="stroke:#181818;stroke-width:1;stroke-linejoin:miter;stroke-miterlimit:10;"/><text x="974.67" y="1039.931" fill="#000" font-size="13" textLength="54.92">member</text></g><!--reverse link AccountingEntry to MembershipFee--><g class="link" data-entity-1="ent0012" data-entity-2="ent0009" id="lnk24" data-source-line="208" data-link-type="dependency"><path d="M1119.206,1145.826 C1108.406,1171.266 1098.99,1193.464 1088.76,1217.564" style="stroke:#181818;stroke-width:1;stroke-dasharray:7,7;" fill="none" id="AccountingEntry-backto-MembershipFee" codeLine="208"/><polygon points="1121.16,1141.224,1113.961,1147.945,1119.206,1145.826,1121.325,1151.071,1121.16,1141.224" fill="#181818" style="stroke:#181818;stroke-width:1;stroke-linejoin:miter;stroke-miterlimit:10;"/><text x="1108.67" y="1183.911" fill="#000" font-size="13" textLength="84.652">accountedBy</text></g><!--reverse link Accountable to MembershipFee--><g class="link" data-entity-1="ent0018" data-entity-2="ent0009" id="lnk26" data-source-line="209" data-link-type="extension"><path d="M1304.122,1139.267 C1298.262,1143.207 1307.38,1137.054 1301.67,1140.844 C1262.5,1166.834 1219.39,1194.544 1180.3,1219.334" style="stroke:#181818;stroke-width:1;" fill="none" id="Accountable-backto-MembershipFee" codeLine="209"/><polygon points="1319.06,1129.224,1300.775,1134.288,1307.47,1144.246,1319.06,1129.224" fill="none" style="stroke:#181818;stroke-width:1;stroke-linejoin:miter;stroke-miterlimit:10;"/></g><!--reverse link Offer to TimeTransfer--><g class="link" data-entity-1="ent0002" data-entity-2="ent0010" id="lnk28" data-source-line="210" data-link-type="dependency"><path d="M653.631,678.84 C647.771,738.41 644.71,824.174 664.67,899.874 C671.08,924.174 682.89,948.764 695.28,970.154" style="stroke:#181818;stroke-width:1;" fill="none" id="Offer-backto-TimeTransfer" codeLine="210"/><polygon points="654.12,673.864,649.258,682.429,653.631,678.84,657.22,683.212,654.12,673.864" fill="#181818" style="stroke:#181818;stroke-width:1;stroke-linejoin:miter;stroke-miterlimit:10;"/><text x="665.67" y="895.941" fill="#000" font-size="13" textLength="30.45">offer</text></g><!--reverse link Member to TimeTransfer--><g class="link" data-entity-1="ent0008" data-entity-2="ent0010" id="lnk30" data-source-line="211" data-link-type="dependency"><path d="M832.143,857.534 C809.473,900.884 790.04,938.044 773.11,970.424" style="stroke:#181818;stroke-width:1;" fill="none" id="Member-backto-TimeTransfer" codeLine="211"/><polygon points="834.46,853.104,826.745,859.225,832.143,857.534,833.834,862.933,834.46,853.104" fill="#181818" style="stroke:#181818;stroke-width:1;stroke-linejoin:miter;stroke-miterlimit:10;"/><text x="819.67" y="895.941" fill="#000" font-size="13" textLength="84.011">fromMember</text></g><!--reverse link Member to TimeTransfer--><g class="link" data-entity-1="ent0008" data-entity-2="ent0010" id="lnk32" data-source-line="212" data-link-type="dependency"><path d="M816.949,840.963 C811.469,846.333 809.42,847.984 803.67,852.874 C778.51,874.284 753.71,855.204 735.67,882.874 C719.15,908.224 718.28,941.364 722.33,970.184" style="stroke:#181818;stroke-width:1;" fill="none" id="Member-backto-TimeTransfer-1" codeLine="212"/><polygon points="820.52,837.464,811.292,840.906,816.949,840.963,816.891,846.62,820.52,837.464" fill="#181818" style="stroke:#181818;stroke-width:1;stroke-linejoin:miter;stroke-miterlimit:10;"/><text x="736.67" y="895.941" fill="#000" font-size="13" textLength="66.523">toMember</text></g><!--reverse link Member to TimeCheque--><g class="link" data-entity-1="ent0008" data-entity-2="ent0011" id="lnk34" data-source-line="213" data-link-type="dependency"><path d="M1106.684,843.823 C1112.154,848.143 1113.87,849.104 1119.67,852.874 C1211,912.204 1528.38,851.184 1603.67,929.874 C1678.58,1008.164 1673.07,1142.824 1660.56,1225.734" style="stroke:#181818;stroke-width:1;" fill="none" id="Member-backto-TimeCheque" codeLine="213"/><polygon points="1102.76,840.724,1107.344,849.441,1106.684,843.823,1112.302,843.163,1102.76,840.724" fill="#181818" style="stroke:#181818;stroke-width:1;stroke-linejoin:miter;stroke-miterlimit:10;"/><text x="1668.67" y="1039.931" fill="#000" font-size="13" textLength="73.76">assignedTo</text></g><!--reverse link AccountingEntry to TimeCheque--><g class="link" data-entity-1="ent0012" data-entity-2="ent0011" id="lnk36" data-source-line="214" data-link-type="dependency"><path d="M1288.367,1133.015 C1294.207,1136.705 1295.84,1137.554 1301.67,1140.844 C1383.54,1187.054 1413.44,1178.184 1498.67,1217.844 C1504.07,1220.364 1509.55,1222.984 1515.06,1225.684" style="stroke:#181818;stroke-width:1;stroke-dasharray:7,7;" fill="none" id="AccountingEntry-backto-TimeCheque" codeLine="214"/><polygon points="1284.14,1130.344,1289.612,1138.533,1288.367,1133.015,1293.885,1131.77,1284.14,1130.344" fill="#181818" style="stroke:#181818;stroke-width:1;stroke-linejoin:miter;stroke-miterlimit:10;"/><text x="1416.67" y="1183.911" fill="#000" font-size="13" textLength="84.652">accountedBy</text></g><!--reverse link Accountable to TimeCheque--><g class="link" data-entity-1="ent0018" data-entity-2="ent0011" id="lnk38" data-source-line="215" data-link-type="extension"><path d="M1581.335,1154.699 C1589.625,1164.369 1585.72,1160.694 1592.67,1170.844 C1604.08,1187.504 1613.73,1207.014 1621.54,1225.664" style="stroke:#181818;stroke-width:1;" fill="none" id="Accountable-backto-TimeCheque" codeLine="215"/><polygon points="1569.62,1141.034,1576.78,1158.605,1585.891,1150.794,1569.62,1141.034" fill="none" style="stroke:#181818;stroke-width:1;stroke-linejoin:miter;stroke-miterlimit:10;"/></g><!--reverse link Member to AccountingEntry--><g class="link" data-entity-1="ent0008" data-entity-2="ent0012" id="lnk40" data-source-line="216" data-link-type="dependency"><path d="M1080.726,857.61 C1093.546,884.29 1103.88,905.794 1115.23,929.394" style="stroke:#181818;stroke-width:1;stroke-dasharray:7,7;" fill="none" id="Member-backto-AccountingEntry" codeLine="216"/><polygon points="1078.56,853.104,1078.853,862.948,1080.726,857.61,1086.063,859.483,1078.56,853.104" fill="#181818" style="stroke:#181818;stroke-width:1;stroke-linejoin:miter;stroke-miterlimit:10;"/><text x="1101.67" y="895.941" fill="#000" font-size="13" textLength="133.091">accountableMember</text></g><!--reverse link AccountingEntry to Transaction--><g class="link" data-entity-1="ent0012" data-entity-2="ent0013" id="lnk42" data-source-line="217" data-link-type="dependency"><path d="M1241.505,1145.328 C1263.255,1176.598 1283.59,1205.814 1302.97,1233.644" style="stroke:#181818;stroke-width:1;stroke-dasharray:7,7;" fill="none" id="AccountingEntry-backto-Transaction" codeLine="217"/><polygon points="1238.65,1141.224,1240.505,1150.896,1241.505,1145.328,1247.073,1146.328,1238.65,1141.224" fill="#181818" style="stroke:#181818;stroke-width:1;stroke-linejoin:miter;stroke-miterlimit:10;"/><text x="1267.67" y="1183.911" fill="#000" font-size="13" textLength="84.652">accountedBy</text></g><!--reverse link Accountable to Transaction--><g class="link" data-entity-1="ent0018" data-entity-2="ent0013" id="lnk44" data-source-line="218" data-link-type="extension"><path d="M1435.258,1158.678 C1431.508,1174.658 1430.82,1173.164 1424.67,1187.844 C1418.09,1203.544 1409.01,1219.244 1399.38,1233.654" style="stroke:#181818;stroke-width:1;" fill="none" id="Accountable-backto-Transaction" codeLine="218"/><polygon points="1439.37,1141.154,1429.416,1157.307,1441.099,1160.048,1439.37,1141.154" fill="none" style="stroke:#181818;stroke-width:1;stroke-linejoin:miter;stroke-miterlimit:10;"/></g><!--reverse link ImageGallery to Image--><g class="link" data-entity-1="ent0014" data-entity-2="ent0015" id="lnk46" data-source-line="219" data-link-type="dependency"><path d="M409.67,235.904 C409.67,308.934 409.67,432.924 409.67,519.404" style="stroke:#181818;stroke-width:1;" fill="none" id="ImageGallery-backto-Image" codeLine="219"/><polygon points="409.67,230.904,405.67,239.904,409.67,235.904,413.67,239.904,409.67,230.904" fill="#181818" style="stroke:#181818;stroke-width:1;stroke-linejoin:miter;stroke-miterlimit:10;"/><text x="410.67" y="330.931" fill="#000" font-size="13" textLength="66.974">belongsTo</text></g><!--reverse link DocumentGallery to PdfDocument--><g class="link" data-entity-1="ent0016" data-entity-2="ent0017" id="lnk48" data-source-line="220" data-link-type="dependency"><path d="M134.67,227.764 C134.67,305.804 134.67,456.134 134.67,543.794" style="stroke:#181818;stroke-width:1;" fill="none" id="DocumentGallery-backto-PdfDocument" codeLine="220"/><polygon points="134.67,222.764,130.67,231.764,134.67,227.764,138.67,231.764,134.67,222.764" fill="#181818" style="stroke:#181818;stroke-width:1;stroke-linejoin:miter;stroke-miterlimit:10;"/><text x="135.67" y="330.931" fill="#000" font-size="13" textLength="66.974">belongsTo</text></g><g class="legend" data-source-line="224"><rect x="833.066" y="1400.922" width="339.403" height="335.938" fill="#DDD" style="stroke:#000;stroke-width:1;" rx="7.5" ry="7.5"/><text x="838.066" y="1418.917" fill="#000" font-size="14" textLength="266.567" font-weight="700">Definition of the used Data-Types</text><text x="838.066" y="1435.214" fill="#000" font-size="14"> </text><text x="838.066" y="1451.511" fill="#000" font-size="14" textLength="161.451">BYTEA : BYTEA (byte[])</text><text x="838.066" y="1467.808" fill="#000" font-size="14" textLength="184.646">Bool : BOOLEAN (Boolean)</text><text x="838.066" y="1484.104" fill="#000" font-size="14" textLength="203.841">Code : VARCHAR(10) (String)</text><text x="838.066" y="1500.401" fill="#000" font-size="14" textLength="170.201">Date : DATE (LocalDate)</text><text x="838.066" y="1516.698" fill="#000" font-size="14" textLength="329.403">DoublePrecision : DOUBLE PRECISION (Double)</text><text x="838.066" y="1532.995" fill="#000" font-size="14" textLength="125.761">ID : BIGINT (Long)</text><text x="838.066" y="1549.292" fill="#000" font-size="14" textLength="159.264">Int : INTEGER (Integer)</text><text x="838.066" y="1565.589" fill="#000" font-size="14" textLength="237.966">LongCode : VARCHAR(20) (String)</text><text x="838.066" y="1581.886" fill="#000" font-size="14" textLength="261.721">LongString : VARCHAR(4000) (String)</text><text x="838.066" y="1598.183" fill="#000" font-size="14" textLength="262.247">Money : NUMERIC(12,2) (BigDecimal)</text><text x="838.066" y="1614.479" fill="#000" font-size="14" textLength="209.303">Name : VARCHAR(80) (String)</text><text x="838.066" y="1630.776" fill="#000" font-size="14" textLength="229.975">Number : NUMERIC (BigDecimal)</text><text x="838.066" y="1647.073" fill="#000" font-size="14" textLength="186.218">Short : SMALLINT (Integer)</text><text x="838.066" y="1663.37" fill="#000" font-size="14" textLength="256.259">ShortString : VARCHAR(250) (String)</text><text x="838.066" y="1679.667" fill="#000" font-size="14" textLength="137.252">Text : TEXT (String)</text><text x="838.066" y="1695.964" fill="#000" font-size="14" textLength="168.513">Time : TIME (LocalTime)</text><text x="838.066" y="1712.261" fill="#000" font-size="14" textLength="293.398">Timestamp : TIMESTAMP (LocalDateTime)</text><text x="838.066" y="1728.558" fill="#000" font-size="14" textLength="158.614">YEAR : INTEGER (Year)</text></g><?plantuml-src hLdDSkCs4hxhAR2djQOinUFDN-amLTIFRTLOiilIp6QIsWD4Dad49A00e3rsDc-onpp6tkR5jXiW9L8c7UrcTP6C_WZqxzSD-g-50PPQkpMZhxw2I5YbXzkCIrlasJ1KEREAHSBWqXD-yqJpl8SVAsm6lUNuYiqa_dvY2nL1blKkGO8Me2tBXMK_MFXisPHRxiIW6S_P-TdvjuEpxmRdVsD5pjv-EphxRlJs-nx8o6-AlzoEWJ4g5DmA9TclFOQVCJV221ahdRjbaEmPj_W86eGyPH5tg1ZIp38ZmXJFaofC6Kf50kQKFOyTmZzWP97df59XM0HvNQ8X4SQ2Tcl3eVlwDHQGHRynoNDW8xR4hyPw7at1X5fidS8ZjaRJ6u3KvjaVG8pL0BPjTzHrWxgEsBMIoGITsP0-YosANYo7vCPoizygjzx4CMxa7Hh813RA0jglsKBO91E0Fq_Pez0Hsu1mA1AYOpP5c1OoOG-e-uyWh447X_V6GHv0Fs80mRPvB4IzsjIB6ivOfKhRbTL29djbxrG6fQxuCyE0YohUG_RbN-III40fSx17q172E2hhH6C4XwaL2QfUGb1PD1lai4rPOSQAwsW1fR_7IcK7WBK6RWhT9Lv1gC5o_TGk3WfNP1rRYnpU0soxzWwYNCXsqKAO42kGIr2Oq2qGZRvSrf9tv-GWLuMqKvLp8J_ohAWyVi73DACoOlTAnkX1AkmDry1kET80L0KIV_ctPkyL5epS9P71vB6Q9mo3xb6rb1coAHf8-U0J3Kt2W9ObE5j-M61gn5YpI2Elv5Dh9N1d2qeNI0zF3T43pqHqeP7IHaH9y5AuLfLevvlP0_ue_R46ZTu7LiY8Sf1BOtbcNLwTihmmlXGSuo2d9C0rEG7hsUVaNzfiYV2q5uSIBqoKjFMZFoFEEPgI-kfso6OwviPGGVBCdxpW-dwg7b4PZZezWqYizs-4uIey9gdu6GoxMY-ks_thZfwyukOy8eswMAuksvUourJjYDjjxIsR2PdpR40hPczW2KP5qK27etOo6oouo9p_2J_yRyW6SdgqXLdXyrPeC87J6CiFWvfl6uWOduGei1RohQNIcikQNILJU6kcgFkUHudXgfOo94lzoRiQAHiGfGwHBLj2mMN64m_ZXLNKvx1eTfHLfbAhvRbJP9blTAbYexDWNLjUKcrhI5tpxHAY0IWlokTV-30MsjXbHsFCUBTi8xHDwpLmLCYsAHRtyjMEkCNQU5IO-yt6KeVyh91YP3BjE1rpGYJIkQmByh-sQqmnqIcCbFepVRxfUGgQguUfAZOPt68ln0bAoIOCZpe65s6TX7OA6s63mg9NnNELKItzQ9vlqU_mQYTTFM7Jo8CmB4dx1OI7OP4NQ0T4LwhG7SLdKh6zW8fHfkg-o57kTQCI_FdBxwbsdKms2x1iKaEs9ZRd8JsnVjfwBo81uRH11JfVJcuMixQQmr7q4_8yglLf5jmTn76fx2JbMBXjbjdzYLtfTT3Bzkq1MSefl1_agBac1VLNBMBhHhJAI1PWEsYOpSQUQB6PQspnUFWreB78jCEk5dKJhq0_YB1LpxICZ2kqPXaePrdhQ4TMJ5BuPJTkx0S4Di2v7iDgNIFB0FiOShwVHRcKp6o__8x31x4Y3QLaRyxUOyLZl_2w7yJpg5Xsc_4dObNcDbgEzoGS2SkBZ1-b3RaMTxRFQE-13mRlUH6VxbCrJ7biJntexo1IIO4pO0pD7eLvR8qSzuVpJNFmwu3CYIpdqoxBdHzRoES8vzGWGVTyndUkwjhdY0j3BV3L7IVB4iXflgGEB7cAZg2Xb0Kue_4Dj3dk_sFsAxFe4PRCSnm4BZbUR7PfSw6i6dZbnoB3huHdDCsrcG0qk7PfveMTEho0jWvqJi4geL4Tp64tncjssQsMe8VAPEmwqc5MuXbQvXWd8pxzj9u5pO2as7EbdnXUIikPjencU-CzoX_2b36Pg8TzMzivPQf2rtoQWLlnFC-gktFLdyfcTCYsvGR7HQT2jmReDeehTKezRgSNk-FR3jz6yH_41X4TaK49lUXfzVvhwTuJw0gyos1l2VPaL2eytybSnoAd6lR8pOxw_PsVBZadjVvnJzpPRFMEFuV3ORzXDrvYKuKAUctmTcI39cUUz9j0ofm3s3mw0kG7bPVG_S47BUlbdY7FN3qtiRHqY1sBP8e37Dwh3i2UVO_IORwwARV649KptB3O3j_vTp8ZzpgXrvo_1iLsy8xj1Zv_8Jd0-3qEs-AeOd-8nayjk_xpNJqvUeq9o9_gNskDcABlDi1EhLYhtF_nAiog6gWSL0uWD74a4gArgeEEiV1WpmFp3f_rE-wFFKohNhth7NLy3TzolcTsRsoZ3Otmcagt1OCMrzd5Gm-vhux63yvnW5FScpTJztB77QvYv6t00GQdKcAF0QM-UVEcrtCaKf49EzayMVZf7_qUiIsjtjnSpu8bEw6_WSj-htnRyJ6ucrm5ToTlp_hin2TslrUrmM0zOoUxGiBrvcM783SVnjSpTditcynNyniym6FwlVcKZfrVpfThseEsdRlcZWkpozaTEo6kIa3tUrLtgQbpNbU7v6NDxH5VdvtLCMvae87jms9sDv-Sl3q_FKVnlhBxlPAfgms-hp--knoNppUVT0HCHBm8hg-TGJlTQznSL_-R-kPLivdziAuj2gVDUhweV4mhVjszKYc5gtMmkAr5mQFezbJt9Lsg-lGl0Pyq_m40?></g></svg>