<?plantuml 1.2026.2beta3?><svg xmlns="http://www.w3.org/2000/svg" xmlns:xlink="http://www.w3.org/1999/xlink" contentStyleType="text/css" data-diagram-type="CLASS" height="1558px" preserveAspectRatio="none" style="width:1405px;height:1558px;background:#FFFFFF;" version="1.1" viewBox="0 0 1405 1558" width="1405px" zoomAndPan="magnify"><title>NBH Entity Modell
Generiert mit Xtext DataModeler am 2026-01-31 um 14:56:51</title><defs/><g><g class="title" data-source-line="1"><text fill="#000000" font-family="sans-serif" font-size="14" font-weight="bold" lengthAdjust="spacing" textLength="143.3564" x="624.1784" y="22.9951">NBH Entity Modell</text><text fill="#000000" font-family="sans-serif" font-size="14" font-weight="bold" lengthAdjust="spacing" textLength="487.4023" x="452.1555" y="39.292">Generiert mit Xtext DataModeler am 2026-01-31 um 14:56:51</text></g><!--class Association--><g class="entity" data-qualified-name="Association" data-source-line="6" id="ent0002"><rect fill="#F1F1F1" height="210.9688" rx="2.5" ry="2.5" style="stroke:#181818;stroke-width:0.5;" width="257.6426" x="734.69" y="68.7438"/><ellipse cx="819.4044" cy="84.7438" fill="#ADD1B2" rx="11" ry="11" style="stroke:#181818;stroke-width:1;"/><path d="M823.5137,90.7438 L815.795,90.7438 L815.795,78.3531 L823.5137,78.3531 L823.5137,80.5094 L818.2481,80.5094 L818.2481,83.1813 L823.0137,83.1813 L823.0137,85.3375 L818.2481,85.3375 L818.2481,88.5875 L823.5137,88.5875 L823.5137,90.7438 Z " fill="#000000"/><text fill="#000000" font-family="sans-serif" font-size="14" lengthAdjust="spacing" textLength="79.7139" x="839.9044" y="89.5904">Association</text><line style="stroke:#181818;stroke-width:0.5;" x1="735.69" x2="991.3326" y1="100.7438" y2="100.7438"/><text fill="#000000" font-family="sans-serif" font-size="14" lengthAdjust="spacing" textLength="245.6426" x="740.69" y="117.7389">Basisinformationen zum Verein, da</text><text fill="#000000" font-family="sans-serif" font-size="14" lengthAdjust="spacing" textLength="197.1895" x="740.69" y="134.0357">fehlt sicher noch einiges, zB</text><text fill="#000000" font-family="sans-serif" font-size="14" lengthAdjust="spacing" textLength="176.791" x="740.69" y="150.3326">Vereinsnummer aus dem</text><text fill="#000000" font-family="sans-serif" font-size="14" lengthAdjust="spacing" textLength="106.9141" x="740.69" y="166.6295">Vereinsregister</text><line style="stroke:#181818;stroke-width:1;stroke-dasharray:1,2;" x1="735.69" x2="991.3326" y1="173.9313" y2="173.9313"/><text fill="#000000" font-family="sans-serif" font-size="14" lengthAdjust="spacing" textLength="94.623" x="740.69" y="190.9264">name : Name</text><text fill="#000000" font-family="sans-serif" font-size="14" lengthAdjust="spacing" textLength="167.3643" x="740.69" y="207.2232">description : LongString</text><text fill="#000000" font-family="sans-serif" font-size="14" lengthAdjust="spacing" textLength="96.1748" x="740.69" y="223.5201">street : Name</text><text fill="#000000" font-family="sans-serif" font-size="14" lengthAdjust="spacing" textLength="138.2227" x="740.69" y="239.817">number : LongCode</text><text fill="#000000" font-family="sans-serif" font-size="14" lengthAdjust="spacing" textLength="69.583" x="740.69" y="256.1139">zip : Code</text><text fill="#000000" font-family="sans-serif" font-size="14" lengthAdjust="spacing" textLength="80.2813" x="740.69" y="272.4107">city : Name</text></g><!--class Offer--><g class="entity" data-qualified-name="Offer" data-source-line="19" id="ent0003"><rect fill="#F1F1F1" height="129.4844" rx="2.5" ry="2.5" style="stroke:#181818;stroke-width:0.5;" width="246.377" x="92.32" y="478.9438"/><ellipse cx="193.6354" cy="494.9438" fill="#ADD1B2" rx="11" ry="11" style="stroke:#181818;stroke-width:1;"/><path d="M197.7448,500.9438 L190.0261,500.9438 L190.0261,488.5531 L197.7448,488.5531 L197.7448,490.7094 L192.4792,490.7094 L192.4792,493.3813 L197.2448,493.3813 L197.2448,495.5375 L192.4792,495.5375 L192.4792,498.7875 L197.7448,498.7875 L197.7448,500.9438 Z " fill="#000000"/><text fill="#000000" font-family="sans-serif" font-size="14" lengthAdjust="spacing" textLength="35.2461" x="214.1354" y="499.7904">Offer</text><line style="stroke:#181818;stroke-width:0.5;" x1="93.32" x2="337.697" y1="510.9438" y2="510.9438"/><text fill="#000000" font-family="sans-serif" font-size="14" lengthAdjust="spacing" textLength="234.377" x="98.32" y="527.9389">Angebote der Mitglieder, wird bei</text><text fill="#000000" font-family="sans-serif" font-size="14" lengthAdjust="spacing" textLength="230.3984" x="98.32" y="544.2357">der Verbuchung von Zeitschecks</text><text fill="#000000" font-family="sans-serif" font-size="14" lengthAdjust="spacing" textLength="74.5801" x="98.32" y="560.5326">verwendet</text><line style="stroke:#181818;stroke-width:1;stroke-dasharray:1,2;" x1="93.32" x2="337.697" y1="567.8344" y2="567.8344"/><text fill="#000000" font-family="sans-serif" font-size="14" lengthAdjust="spacing" textLength="83.2207" x="98.32" y="584.8295">code : Code</text><text fill="#000000" font-family="sans-serif" font-size="14" lengthAdjust="spacing" textLength="170.8096" x="98.32" y="601.1264">description : ShortString</text></g><!--class Role--><g class="entity" data-qualified-name="Role" data-source-line="27" id="ent0004"><rect fill="#F1F1F1" height="227.2656" rx="2.5" ry="2.5" style="stroke:#181818;stroke-width:0.5;" width="244.4971" x="431.26" y="60.5938"/><ellipse cx="533.8606" cy="76.5938" fill="#ADD1B2" rx="11" ry="11" style="stroke:#181818;stroke-width:1;"/><path d="M537.97,82.5938 L530.2512,82.5938 L530.2512,70.2031 L537.97,70.2031 L537.97,72.3594 L532.7043,72.3594 L532.7043,75.0313 L537.47,75.0313 L537.47,77.1875 L532.7043,77.1875 L532.7043,80.4375 L537.97,80.4375 L537.97,82.5938 Z " fill="#000000"/><text fill="#000000" font-family="sans-serif" font-size="14" lengthAdjust="spacing" textLength="30.7959" x="554.3606" y="81.4404">Role</text><line style="stroke:#181818;stroke-width:0.5;" x1="432.26" x2="674.7571" y1="92.5938" y2="92.5938"/><text fill="#000000" font-family="sans-serif" font-size="14" lengthAdjust="spacing" textLength="231.5605" x="437.26" y="109.5889">Rollen im Verein. &#220;ber die Rollen</text><text fill="#000000" font-family="sans-serif" font-size="14" lengthAdjust="spacing" textLength="232.4971" x="437.26" y="125.8857">werden auch die Berechtigungen</text><text fill="#000000" font-family="sans-serif" font-size="14" lengthAdjust="spacing" textLength="70.9775" x="437.26" y="142.1826">vergeben.</text><line style="stroke:#181818;stroke-width:1;stroke-dasharray:1,2;" x1="432.26" x2="674.7571" y1="149.4844" y2="149.4844"/><text fill="#000000" font-family="sans-serif" font-size="14" lengthAdjust="spacing" textLength="154.4033" x="437.26" y="166.4795">isBoardMember : Bool</text><text fill="#000000" font-family="sans-serif" font-size="14" lengthAdjust="spacing" textLength="100.29" x="437.26" y="182.7764">isAdmin : Bool</text><text fill="#000000" font-family="sans-serif" font-size="14" lengthAdjust="spacing" textLength="123.2178" x="437.26" y="199.0732">isTreasurer : Bool</text><text fill="#000000" font-family="sans-serif" font-size="14" lengthAdjust="spacing" textLength="123.1016" x="437.26" y="215.3701">isSecretary : Bool</text><text fill="#000000" font-family="sans-serif" font-size="14" lengthAdjust="spacing" textLength="106.4629" x="437.26" y="231.667">isAuditor : Bool</text><text fill="#000000" font-family="sans-serif" font-size="14" lengthAdjust="spacing" textLength="139.7813" x="437.26" y="247.9639">isTimeKeeper : Bool</text><text fill="#000000" font-family="sans-serif" font-size="14" lengthAdjust="spacing" textLength="153.5762" x="437.26" y="264.2607">isMiscellaneous : Bool</text><text fill="#000000" font-family="sans-serif" font-size="14" lengthAdjust="spacing" textLength="123.0469" x="437.26" y="280.5576">roleName : Name</text></g><!--class AmountDomainValue--><g class="entity" data-qualified-name="AmountDomainValue" data-source-line="41" id="ent0005"><rect fill="#F1F1F1" height="178.375" rx="2.5" ry="2.5" style="stroke:#181818;stroke-width:0.5;" width="269.2227" x="1026.9" y="85.0438"/><ellipse cx="1082.8248" cy="101.0438" fill="#ADD1B2" rx="11" ry="11" style="stroke:#181818;stroke-width:1;"/><path d="M1086.9342,107.0438 L1079.2154,107.0438 L1079.2154,94.6531 L1086.9342,94.6531 L1086.9342,96.8094 L1081.6686,96.8094 L1081.6686,99.4813 L1086.4342,99.4813 L1086.4342,101.6375 L1081.6686,101.6375 L1081.6686,104.8875 L1086.9342,104.8875 L1086.9342,107.0438 Z " fill="#000000"/><text fill="#000000" font-family="sans-serif" font-size="14" lengthAdjust="spacing" textLength="148.873" x="1103.3248" y="105.8904">AmountDomainValue</text><line style="stroke:#181818;stroke-width:0.5;" x1="1027.9" x2="1295.1227" y1="117.0438" y2="117.0438"/><text fill="#000000" font-family="sans-serif" font-size="14" lengthAdjust="spacing" textLength="256.5049" x="1032.9" y="134.0389">Fachliche konfigurierbare Parameter</text><text fill="#000000" font-family="sans-serif" font-size="14" lengthAdjust="spacing" textLength="225.7637" x="1032.9" y="150.3357">f&#252;r Kosten Mitgliedsbeitrag oder</text><text fill="#000000" font-family="sans-serif" font-size="14" lengthAdjust="spacing" textLength="257.2227" x="1032.9" y="166.6326">Zeitschecks. Der Code wird in einem</text><text fill="#000000" font-family="sans-serif" font-size="14" lengthAdjust="spacing" textLength="105.0342" x="1032.9" y="182.9295">ENUM definiert</text><line style="stroke:#181818;stroke-width:1;stroke-dasharray:1,2;" x1="1027.9" x2="1295.1227" y1="190.2313" y2="190.2313"/><text fill="#000000" font-family="sans-serif" font-size="14" lengthAdjust="spacing" textLength="117.3457" x="1032.9" y="207.2264">code : LongCode</text><text fill="#000000" font-family="sans-serif" font-size="14" lengthAdjust="spacing" textLength="114.0508" x="1032.9" y="223.5232">amount : Money</text><text fill="#000000" font-family="sans-serif" font-size="14" lengthAdjust="spacing" textLength="116.6211" x="1032.9" y="239.8201">validFrom : Date</text><text fill="#000000" font-family="sans-serif" font-size="14" lengthAdjust="spacing" textLength="97.7266" x="1032.9" y="256.117">validTo : Date</text></g><!--class Event--><g class="entity" data-qualified-name="Event" data-source-line="52" id="ent0006"><rect fill="#F1F1F1" height="96.8906" rx="2.5" ry="2.5" style="stroke:#181818;stroke-width:0.5;" width="267.7256" x="729.65" y="495.2338"/><ellipse cx="839.2096" cy="511.2338" fill="#ADD1B2" rx="11" ry="11" style="stroke:#181818;stroke-width:1;"/><path d="M843.3189,517.2338 L835.6002,517.2338 L835.6002,504.8431 L843.3189,504.8431 L843.3189,506.9994 L838.0533,506.9994 L838.0533,509.6713 L842.8189,509.6713 L842.8189,511.8275 L838.0533,511.8275 L838.0533,515.0775 L843.3189,515.0775 L843.3189,517.2338 Z " fill="#000000"/><text fill="#000000" font-family="sans-serif" font-size="14" lengthAdjust="spacing" textLength="40.1064" x="859.7096" y="516.0804">Event</text><line style="stroke:#181818;stroke-width:0.5;" x1="730.65" x2="996.3756" y1="527.2338" y2="527.2338"/><text fill="#000000" font-family="sans-serif" font-size="14" lengthAdjust="spacing" textLength="255.7256" x="735.65" y="544.2289">Termine und Veranstaltungen, muss</text><text fill="#000000" font-family="sans-serif" font-size="14" lengthAdjust="spacing" textLength="198.2764" x="735.65" y="560.5257">noch ausgearbeitet werden!</text><line style="stroke:#181818;stroke-width:1;stroke-dasharray:1,2;" x1="730.65" x2="996.3756" y1="567.8275" y2="567.8275"/><text fill="#000000" font-family="sans-serif" font-size="14" lengthAdjust="spacing" textLength="78.6475" x="735.65" y="584.8226">date : Date</text></g><!--class RegistrationCode--><g class="entity" data-qualified-name="RegistrationCode" data-source-line="58" id="ent0007"><rect fill="#F1F1F1" height="129.4844" rx="2.5" ry="2.5" style="stroke:#181818;stroke-width:0.5;" width="256.7471" x="1032.14" y="478.9438"/><ellipse cx="1095.8168" cy="494.9438" fill="#ADD1B2" rx="11" ry="11" style="stroke:#181818;stroke-width:1;"/><path d="M1099.9261,500.9438 L1092.2074,500.9438 L1092.2074,488.5531 L1099.9261,488.5531 L1099.9261,490.7094 L1094.6605,490.7094 L1094.6605,493.3813 L1099.4261,493.3813 L1099.4261,495.5375 L1094.6605,495.5375 L1094.6605,498.7875 L1099.9261,498.7875 L1099.9261,500.9438 Z " fill="#000000"/><text fill="#000000" font-family="sans-serif" font-size="14" lengthAdjust="spacing" textLength="120.8936" x="1116.3168" y="499.7904">RegistrationCode</text><line style="stroke:#181818;stroke-width:0.5;" x1="1033.14" x2="1287.8871" y1="510.9438" y2="510.9438"/><text fill="#000000" font-family="sans-serif" font-size="14" lengthAdjust="spacing" textLength="244.7471" x="1038.14" y="527.9389">Einmal-Codes f&#252;r die Registrierung</text><text fill="#000000" font-family="sans-serif" font-size="14" lengthAdjust="spacing" textLength="145.626" x="1038.14" y="544.2357">mit E-Mail und Code.</text><line style="stroke:#181818;stroke-width:1;stroke-dasharray:1,2;" x1="1033.14" x2="1287.8871" y1="551.5375" y2="551.5375"/><text fill="#000000" font-family="sans-serif" font-size="14" lengthAdjust="spacing" textLength="83.2207" x="1038.14" y="568.5326">code : Code</text><text fill="#000000" font-family="sans-serif" font-size="14" lengthAdjust="spacing" textLength="93.5293" x="1038.14" y="584.8295">email : Name</text><text fill="#000000" font-family="sans-serif" font-size="14" lengthAdjust="spacing" textLength="158.6006" x="1038.14" y="601.1264">expiresAt : Timestamp</text></g><!--class Member--><g class="entity" data-qualified-name="Member" data-source-line="66" id="ent0008"><rect fill="#F1F1F1" height="357.6406" rx="2.5" ry="2.5" style="stroke:#181818;stroke-width:0.5;" width="281.5273" x="412.75" y="364.8638"/><ellipse cx="520.4707" cy="380.8638" fill="#ADD1B2" rx="11" ry="11" style="stroke:#181818;stroke-width:1;"/><path d="M524.5801,386.8638 L516.8613,386.8638 L516.8613,374.4731 L524.5801,374.4731 L524.5801,376.6294 L519.3145,376.6294 L519.3145,379.3013 L524.0801,379.3013 L524.0801,381.4575 L519.3145,381.4575 L519.3145,384.7075 L524.5801,384.7075 L524.5801,386.8638 Z " fill="#000000"/><text fill="#000000" font-family="sans-serif" font-size="14" lengthAdjust="spacing" textLength="57.5859" x="540.9707" y="385.7104">Member</text><line style="stroke:#181818;stroke-width:0.5;" x1="413.75" x2="693.2773" y1="396.8638" y2="396.8638"/><text fill="#000000" font-family="sans-serif" font-size="14" lengthAdjust="spacing" textLength="223.1592" x="418.75" y="413.8589">Die Mitglieder des Vereins. Eine</text><text fill="#000000" font-family="sans-serif" font-size="14" lengthAdjust="spacing" textLength="269.5273" x="418.75" y="430.1557">Mitgliedsnummer muss bei Neuanlage</text><text fill="#000000" font-family="sans-serif" font-size="14" lengthAdjust="spacing" textLength="219.0371" x="418.75" y="446.4526">automatisch vergeben werden.</text><line style="stroke:#181818;stroke-width:1;stroke-dasharray:1,2;" x1="413.75" x2="693.2773" y1="453.7544" y2="453.7544"/><text fill="#000000" font-family="sans-serif" font-size="14" lengthAdjust="spacing" textLength="130.0059" x="418.75" y="470.7495">memberNmbr : Int</text><text fill="#000000" font-family="sans-serif" font-size="14" lengthAdjust="spacing" textLength="153.1045" x="418.75" y="487.0464">salutation : LongCode</text><text fill="#000000" font-family="sans-serif" font-size="14" lengthAdjust="spacing" textLength="110.9541" x="418.75" y="503.3432">title : LongCode</text><text fill="#000000" font-family="sans-serif" font-size="14" lengthAdjust="spacing" textLength="125.5352" x="418.75" y="519.6401">institution : Name</text><text fill="#000000" font-family="sans-serif" font-size="14" lengthAdjust="spacing" textLength="123.5801" x="418.75" y="535.937">firstName : Name</text><text fill="#000000" font-family="sans-serif" font-size="14" lengthAdjust="spacing" textLength="121.4746" x="418.75" y="552.2339">lastName : Name</text><text fill="#000000" font-family="sans-serif" font-size="14" lengthAdjust="spacing" textLength="111.542" x="418.75" y="568.5307">birthdate : Date</text><text fill="#000000" font-family="sans-serif" font-size="14" lengthAdjust="spacing" textLength="93.5293" x="418.75" y="584.8276">email : Name</text><text fill="#000000" font-family="sans-serif" font-size="14" lengthAdjust="spacing" textLength="159.6807" x="418.75" y="601.1245">password : ShortString</text><text fill="#000000" font-family="sans-serif" font-size="14" lengthAdjust="spacing" textLength="127.4082" x="418.75" y="617.4214">joiningDate : Date</text><text fill="#000000" font-family="sans-serif" font-size="14" lengthAdjust="spacing" textLength="159.25" x="418.75" y="633.7182">resignationDate : Date</text><text fill="#000000" font-family="sans-serif" font-size="14" lengthAdjust="spacing" textLength="96.1748" x="418.75" y="650.0151">street : Name</text><text fill="#000000" font-family="sans-serif" font-size="14" lengthAdjust="spacing" textLength="138.2227" x="418.75" y="666.312">number : LongCode</text><text fill="#000000" font-family="sans-serif" font-size="14" lengthAdjust="spacing" textLength="69.583" x="418.75" y="682.6089">zip : Code</text><text fill="#000000" font-family="sans-serif" font-size="14" lengthAdjust="spacing" textLength="80.2813" x="418.75" y="698.9057">city : Name</text><text fill="#000000" font-family="sans-serif" font-size="14" lengthAdjust="spacing" textLength="163.9395" x="418.75" y="715.2026">accumulatedHours : Int</text></g><!--class MembershipFee--><g class="entity" data-qualified-name="MembershipFee" data-source-line="88" id="ent0009"><rect fill="#F1F1F1" height="145.7813" rx="2.5" ry="2.5" style="stroke:#181818;stroke-width:0.5;" width="250.4033" x="1148.31" y="1087.4738"/><ellipse cx="1213.3574" cy="1103.4738" fill="#ADD1B2" rx="11" ry="11" style="stroke:#181818;stroke-width:1;"/><path d="M1217.4667,1109.4738 L1209.748,1109.4738 L1209.748,1097.0831 L1217.4667,1097.0831 L1217.4667,1099.2394 L1212.2011,1099.2394 L1212.2011,1101.9113 L1216.9667,1101.9113 L1216.9667,1104.0675 L1212.2011,1104.0675 L1212.2011,1107.3175 L1217.4667,1107.3175 L1217.4667,1109.4738 Z " fill="#000000"/><text fill="#000000" font-family="sans-serif" font-size="14" lengthAdjust="spacing" textLength="111.8086" x="1233.8574" y="1108.3204">MembershipFee</text><line style="stroke:#181818;stroke-width:0.5;" x1="1149.31" x2="1397.7133" y1="1119.4738" y2="1119.4738"/><text fill="#000000" font-family="sans-serif" font-size="14" lengthAdjust="spacing" textLength="207.8467" x="1154.31" y="1136.4689">Dokumentation des j&#228;hrlicher</text><text fill="#000000" font-family="sans-serif" font-size="14" lengthAdjust="spacing" textLength="238.4033" x="1154.31" y="1152.7657">Mitgliedsbeitrag. TransactionType</text><text fill="#000000" font-family="sans-serif" font-size="14" lengthAdjust="spacing" textLength="127.4287" x="1154.31" y="1169.0626">ist immer INCOME</text><line style="stroke:#181818;stroke-width:1;stroke-dasharray:1,2;" x1="1149.31" x2="1397.7133" y1="1176.3644" y2="1176.3644"/><text fill="#000000" font-family="sans-serif" font-size="14" lengthAdjust="spacing" textLength="101.0693" x="1154.31" y="1193.3595">forYear : YEAR</text><text fill="#000000" font-family="sans-serif" font-size="14" lengthAdjust="spacing" textLength="159.626" x="1154.31" y="1209.6564">transactionDate : Date</text><text fill="#000000" font-family="sans-serif" font-size="14" lengthAdjust="spacing" textLength="114.0508" x="1154.31" y="1225.9532">amount : Money</text></g><!--class MemberOffer--><g class="entity" data-qualified-name="MemberOffer" data-source-line="97" id="ent0010"><rect fill="#F1F1F1" height="96.8906" rx="2.5" ry="2.5" style="stroke:#181818;stroke-width:0.5;" width="234.3594" x="289.33" y="856.5438"/><ellipse cx="355.8437" cy="872.5438" fill="#ADD1B2" rx="11" ry="11" style="stroke:#181818;stroke-width:1;"/><path d="M359.953,878.5438 L352.2343,878.5438 L352.2343,866.1531 L359.953,866.1531 L359.953,868.3094 L354.6874,868.3094 L354.6874,870.9813 L359.453,870.9813 L359.453,873.1375 L354.6874,873.1375 L354.6874,876.3875 L359.953,876.3875 L359.953,878.5438 Z " fill="#000000"/><text fill="#000000" font-family="sans-serif" font-size="14" lengthAdjust="spacing" textLength="92.832" x="376.3437" y="877.3904">MemberOffer</text><line style="stroke:#181818;stroke-width:0.5;" x1="290.33" x2="522.6894" y1="888.5438" y2="888.5438"/><text fill="#000000" font-family="sans-serif" font-size="14" lengthAdjust="spacing" textLength="222.3594" x="295.33" y="905.5389">Angebote des Mitglieds. Kl&#228;ren,</text><text fill="#000000" font-family="sans-serif" font-size="14" lengthAdjust="spacing" textLength="205.6182" x="295.33" y="921.8357">brauchen wir das &#252;berhaupt?</text><line style="stroke:#181818;stroke-width:1;stroke-dasharray:1,2;" x1="290.33" x2="522.6894" y1="929.1375" y2="929.1375"/><text fill="#000000" font-family="sans-serif" font-size="14" lengthAdjust="spacing" textLength="90.3643" x="295.33" y="946.1326">isActiv : Bool</text></g><!--class TimeTransfer--><g class="entity" data-qualified-name="TimeTransfer" data-source-line="103" id="ent0011"><rect fill="#F1F1F1" height="129.4844" rx="2.5" ry="2.5" style="stroke:#181818;stroke-width:0.5;" width="247.0195" x="7" y="840.2438"/><ellipse cx="79.7378" cy="856.2438" fill="#ADD1B2" rx="11" ry="11" style="stroke:#181818;stroke-width:1;"/><path d="M83.8472,862.2438 L76.1284,862.2438 L76.1284,849.8531 L83.8472,849.8531 L83.8472,852.0094 L78.5815,852.0094 L78.5815,854.6813 L83.3472,854.6813 L83.3472,856.8375 L78.5815,856.8375 L78.5815,860.0875 L83.8472,860.0875 L83.8472,862.2438 Z " fill="#000000"/><text fill="#000000" font-family="sans-serif" font-size="14" lengthAdjust="spacing" textLength="93.0439" x="100.2378" y="861.0904">TimeTransfer</text><line style="stroke:#181818;stroke-width:0.5;" x1="8" x2="253.0195" y1="872.2438" y2="872.2438"/><text fill="#000000" font-family="sans-serif" font-size="14" lengthAdjust="spacing" textLength="220.9375" x="13" y="889.2389">Zeitgutschrift von Mitglied A an</text><text fill="#000000" font-family="sans-serif" font-size="14" lengthAdjust="spacing" textLength="235.0195" x="13" y="905.5357">Mitglied B f&#252;r erbrachte Leistung.</text><line style="stroke:#181818;stroke-width:1;stroke-dasharray:1,2;" x1="8" x2="253.0195" y1="912.8375" y2="912.8375"/><text fill="#000000" font-family="sans-serif" font-size="14" lengthAdjust="spacing" textLength="146.3369" x="13" y="929.8326">dateOfService : Date</text><text fill="#000000" font-family="sans-serif" font-size="14" lengthAdjust="spacing" textLength="90.5488" x="13" y="946.1295">hours : Short</text><text fill="#000000" font-family="sans-serif" font-size="14" lengthAdjust="spacing" textLength="124.5098" x="13" y="962.4264">note : ShortString</text></g><!--class TimeCheque--><g class="entity" data-qualified-name="TimeCheque" data-source-line="111" id="ent0012"><rect fill="#F1F1F1" height="145.7813" rx="2.5" ry="2.5" style="stroke:#181818;stroke-width:0.5;" width="260.3633" x="552.33" y="1087.4738"/><ellipse cx="634.0981" cy="1103.4738" fill="#ADD1B2" rx="11" ry="11" style="stroke:#181818;stroke-width:1;"/><path d="M638.2074,1109.4738 L630.4887,1109.4738 L630.4887,1097.0831 L638.2074,1097.0831 L638.2074,1099.2394 L632.9418,1099.2394 L632.9418,1101.9113 L637.7074,1101.9113 L637.7074,1104.0675 L632.9418,1104.0675 L632.9418,1107.3175 L638.2074,1107.3175 L638.2074,1109.4738 Z " fill="#000000"/><text fill="#000000" font-family="sans-serif" font-size="14" lengthAdjust="spacing" textLength="88.3271" x="654.5981" y="1108.3204">TimeCheque</text><line style="stroke:#181818;stroke-width:0.5;" x1="553.33" x2="811.6933" y1="1119.4738" y2="1119.4738"/><text fill="#000000" font-family="sans-serif" font-size="14" lengthAdjust="spacing" textLength="230.5557" x="558.33" y="1136.4689">Zeitscheck - zuerst angelegt und</text><text fill="#000000" font-family="sans-serif" font-size="14" lengthAdjust="spacing" textLength="245.6494" x="558.33" y="1152.7657">dann sp&#228;ter verbucht vom Kassier.</text><text fill="#000000" font-family="sans-serif" font-size="14" lengthAdjust="spacing" textLength="248.3633" x="558.33" y="1169.0626">TransactionType ist immer INCOME</text><line style="stroke:#181818;stroke-width:1;stroke-dasharray:1,2;" x1="553.33" x2="811.6933" y1="1176.3644" y2="1176.3644"/><text fill="#000000" font-family="sans-serif" font-size="14" lengthAdjust="spacing" textLength="90.5488" x="558.33" y="1193.3595">hours : Short</text><text fill="#000000" font-family="sans-serif" font-size="14" lengthAdjust="spacing" textLength="159.626" x="558.33" y="1209.6564">transactionDate : Date</text><text fill="#000000" font-family="sans-serif" font-size="14" lengthAdjust="spacing" textLength="114.0508" x="558.33" y="1225.9532">amount : Money</text></g><!--class AccountingEntry--><g class="entity" data-qualified-name="AccountingEntry" data-source-line="120" id="ent0013"><rect fill="#F1F1F1" height="210.9688" rx="2.5" ry="2.5" style="stroke:#181818;stroke-width:0.5;" width="236.3145" x="703.35" y="799.5038"/><ellipse cx="759.4218" cy="815.5038" fill="#ADD1B2" rx="11" ry="11" style="stroke:#181818;stroke-width:1;"/><path d="M763.5312,821.5038 L755.8124,821.5038 L755.8124,809.1131 L763.5312,809.1131 L763.5312,811.2694 L758.2655,811.2694 L758.2655,813.9413 L763.0312,813.9413 L763.0312,816.0975 L758.2655,816.0975 L758.2655,819.3475 L763.5312,819.3475 L763.5312,821.5038 Z " fill="#000000"/><text fill="#000000" font-family="sans-serif" font-size="14" lengthAdjust="spacing" textLength="115.6709" x="779.9218" y="820.3504">AccountingEntry</text><line style="stroke:#181818;stroke-width:0.5;" x1="704.35" x2="938.6645" y1="831.5038" y2="831.5038"/><text fill="#000000" font-family="sans-serif" font-size="14" lengthAdjust="spacing" textLength="158.7988" x="709.35" y="848.4989">Buchungsdatensatz zu</text><text fill="#000000" font-family="sans-serif" font-size="14" lengthAdjust="spacing" textLength="224.3145" x="709.35" y="864.7957">Zeitscheck-Kauf, Mitgliedschaft,</text><text fill="#000000" font-family="sans-serif" font-size="14" lengthAdjust="spacing" textLength="163.6797" x="709.35" y="881.0926">Weihnachtsessen, usw.</text><line style="stroke:#181818;stroke-width:1;stroke-dasharray:1,2;" x1="704.35" x2="938.6645" y1="888.3944" y2="888.3944"/><text fill="#000000" font-family="sans-serif" font-size="14" lengthAdjust="spacing" textLength="177.4951" x="709.35" y="905.3895">accountableClass : Name</text><text fill="#000000" font-family="sans-serif" font-size="14" lengthAdjust="spacing" textLength="127.2852" x="709.35" y="921.6864">accountableId : ID</text><text fill="#000000" font-family="sans-serif" font-size="14" lengthAdjust="spacing" textLength="162.8799" x="709.35" y="937.9832">transactionType : Code</text><text fill="#000000" font-family="sans-serif" font-size="14" lengthAdjust="spacing" textLength="159.626" x="709.35" y="954.2801">transactionDate : Date</text><text fill="#000000" font-family="sans-serif" font-size="14" lengthAdjust="spacing" textLength="194.1338" x="709.35" y="970.577">transactionAmount : Money</text><text fill="#000000" font-family="sans-serif" font-size="14" lengthAdjust="spacing" textLength="157.9648" x="709.35" y="986.8739">accountingDate : Date</text><text fill="#000000" font-family="sans-serif" font-size="14" lengthAdjust="spacing" textLength="170.8096" x="709.35" y="1003.1707">description : ShortString</text></g><!--class Transaction--><g class="entity" data-qualified-name="Transaction" data-source-line="133" id="ent0014"><rect fill="#F1F1F1" height="129.4844" rx="2.5" ry="2.5" style="stroke:#181818;stroke-width:0.5;" width="266.5498" x="847.23" y="1095.6238"/><ellipse cx="935.1812" cy="1111.6238" fill="#ADD1B2" rx="11" ry="11" style="stroke:#181818;stroke-width:1;"/><path d="M939.2905,1117.6238 L931.5718,1117.6238 L931.5718,1105.2331 L939.2905,1105.2331 L939.2905,1107.3894 L934.0249,1107.3894 L934.0249,1110.0613 L938.7905,1110.0613 L938.7905,1112.2175 L934.0249,1112.2175 L934.0249,1115.4675 L939.2905,1115.4675 L939.2905,1117.6238 Z " fill="#000000"/><text fill="#000000" font-family="sans-serif" font-size="14" lengthAdjust="spacing" textLength="82.1475" x="955.6812" y="1116.4704">Transaction</text><line style="stroke:#181818;stroke-width:0.5;" x1="848.23" x2="1112.7798" y1="1127.6238" y2="1127.6238"/><text fill="#000000" font-family="sans-serif" font-size="14" lengthAdjust="spacing" textLength="254.5498" x="853.23" y="1144.6189">Allgemeine Einnahme oder Ausgabe</text><line style="stroke:#181818;stroke-width:1;stroke-dasharray:1,2;" x1="848.23" x2="1112.7798" y1="1151.9206" y2="1151.9206"/><text fill="#000000" font-family="sans-serif" font-size="14" lengthAdjust="spacing" textLength="162.8799" x="853.23" y="1168.9157">transactionType : Code</text><text fill="#000000" font-family="sans-serif" font-size="14" lengthAdjust="spacing" textLength="159.626" x="853.23" y="1185.2126">transactionDate : Date</text><text fill="#000000" font-family="sans-serif" font-size="14" lengthAdjust="spacing" textLength="114.0508" x="853.23" y="1201.5095">amount : Money</text><text fill="#000000" font-family="sans-serif" font-size="14" lengthAdjust="spacing" textLength="170.8096" x="853.23" y="1217.8064">description : ShortString</text></g><!--class Accountable--><g class="entity" data-qualified-name="Accountable" data-source-line="142" id="ent0015"><rect fill="#F1F1F1" height="194.6719" rx="2.5" ry="2.5" style="stroke:#181818;stroke-width:0.5;" width="266.9941" x="975.01" y="807.6538"/><ellipse cx="1060.8865" cy="823.6538" fill="#B4A7E5" rx="11" ry="11" style="stroke:#181818;stroke-width:1;"/><path d="M1056.8083,819.4194 L1056.8083,817.2631 L1064.199,817.2631 L1064.199,819.4194 L1061.7302,819.4194 L1061.7302,827.4975 L1064.199,827.4975 L1064.199,829.6538 L1056.8083,829.6538 L1056.8083,827.4975 L1059.2771,827.4975 L1059.2771,819.4194 L1056.8083,819.4194 Z " fill="#000000"/><text fill="#000000" font-family="sans-serif" font-size="14" font-style="italic" lengthAdjust="spacing" textLength="86.7412" x="1081.3865" y="828.5004">Accountable</text><line style="stroke:#181818;stroke-width:0.5;" x1="976.01" x2="1241.0041" y1="839.6538" y2="839.6538"/><text fill="#000000" font-family="sans-serif" font-size="14" lengthAdjust="spacing" textLength="222.0996" x="981.01" y="856.6489">Interface f&#252;r alles was verbucht</text><text fill="#000000" font-family="sans-serif" font-size="14" lengthAdjust="spacing" textLength="155.1484" x="981.01" y="872.9457">wird (Zeitscheck kauf,</text><text fill="#000000" font-family="sans-serif" font-size="14" lengthAdjust="spacing" textLength="117.2979" x="981.01" y="889.2426">Mitgliedschaft...)</text><line style="stroke:#181818;stroke-width:1;stroke-dasharray:1,2;" x1="976.01" x2="1241.0041" y1="896.5444" y2="896.5444"/><text fill="#000000" font-family="sans-serif" font-size="14" lengthAdjust="spacing" textLength="245.0205" x="981.01" y="913.5395">String getAccountableClassName()</text><text fill="#000000" font-family="sans-serif" font-size="14" lengthAdjust="spacing" textLength="172.2451" x="981.01" y="929.8364">Long getAccountableId()</text><text fill="#000000" font-family="sans-serif" font-size="14" lengthAdjust="spacing" textLength="229.8311" x="981.01" y="946.1332">Long getAccountableMemberId()</text><text fill="#000000" font-family="sans-serif" font-size="14" lengthAdjust="spacing" textLength="196.6289" x="981.01" y="962.4301">String getTransactionType()</text><text fill="#000000" font-family="sans-serif" font-size="14" lengthAdjust="spacing" textLength="219.7891" x="981.01" y="978.727">String getTransactionISODate()</text><text fill="#000000" font-family="sans-serif" font-size="14" lengthAdjust="spacing" textLength="254.9941" x="981.01" y="995.0239">BigDecimal getTransactionAmount()</text></g><!--reverse link Role to Member--><g class="link" data-entity-1="ent0004" data-entity-2="ent0008" data-link-type="dependency" data-source-line="155" id="lnk17"><path codeLine="155" d="M553.51,294.2238 C553.51,318.3738 553.51,338.4538 553.51,364.3838" fill="none" id="Role-backto-Member" style="stroke:#181818;stroke-width:1;stroke-dasharray:7,7;"/><polygon fill="#181818" points="553.51,288.2238,549.51,297.2238,553.51,293.2238,557.51,297.2238,553.51,288.2238" style="stroke:#181818;stroke-width:1;"/><text fill="#000000" font-family="sans-serif" font-size="13" lengthAdjust="spacing" textLength="24.9082" x="554.51" y="330.9306">role</text></g><!--reverse link Member to MembershipFee--><g class="link" data-entity-1="ent0008" data-entity-2="ent0009" data-link-type="dependency" data-source-line="156" id="lnk19"><path codeLine="156" d="M699.5254,715.0622 C705.3954,718.9422 706.39,719.2338 712.51,722.5038 C820.79,780.3338 1177.2,708.4338 1259.51,799.5038 C1329.52,876.9638 1314.15,1006.5038 1295,1087.2138" fill="none" id="Member-backto-MembershipFee" style="stroke:#181818;stroke-width:1;"/><polygon fill="#181818" points="694.52,711.7538,699.8224,720.0534,698.6912,714.5108,704.2337,713.3796,694.52,711.7538" style="stroke:#181818;stroke-width:1;"/><text fill="#000000" font-family="sans-serif" font-size="13" lengthAdjust="spacing" textLength="54.9199" x="1311.51" y="909.5506">member</text></g><!--reverse link AccountingEntry to MembershipFee--><g class="link" data-entity-1="ent0013" data-entity-2="ent0009" data-link-type="dependency" data-source-line="157" id="lnk21"><path codeLine="157" d="M945.1955,1002.9316 C950.9755,1006.7016 951.75,1007.0538 957.51,1010.4738 C1030.22,1053.6538 1055.09,1051.2538 1131.51,1087.4738 C1136.88,1090.0138 1142.35,1092.6438 1147.86,1095.3138" fill="none" id="AccountingEntry-backto-MembershipFee" style="stroke:#181818;stroke-width:1;stroke-dasharray:7,7;"/><polygon fill="#181818" points="940.17,999.6538,945.523,1007.9209,944.3579,1002.3853,949.8935,1001.2202,940.17,999.6538" style="stroke:#181818;stroke-width:1;"/><text fill="#000000" font-family="sans-serif" font-size="13" lengthAdjust="spacing" textLength="84.6523" x="1058.51" y="1053.5406">accountedBy</text></g><!--reverse link Accountable to MembershipFee--><g class="link" data-entity-1="ent0015" data-entity-2="ent0009" data-link-type="extension" data-source-line="158" id="lnk23"><path codeLine="158" d="M1181.1843,1017.5863 C1199.4943,1045.6963 1209.34,1060.8238 1226.49,1087.1638" fill="none" id="Accountable-backto-MembershipFee" style="stroke:#181818;stroke-width:1;"/><polygon fill="none" points="1171.36,1002.5038,1176.1568,1020.8611,1186.2118,1014.3115,1171.36,1002.5038" style="stroke:#181818;stroke-width:1;"/></g><!--reverse link Offer to MemberOffer--><g class="link" data-entity-1="ent0003" data-entity-2="ent0010" data-link-type="dependency" data-source-line="159" id="lnk25"><path codeLine="159" d="M241.788,614.3427 C259.938,660.2027 284.41,717.2338 313.51,769.5038 C330.22,799.5138 351.91,831.2038 370.14,856.2738" fill="none" id="Offer-backto-MemberOffer" style="stroke:#181818;stroke-width:1;"/><polygon fill="#181818" points="239.58,608.7638,239.1727,618.6042,241.42,613.4129,246.6113,615.6602,239.58,608.7638" style="stroke:#181818;stroke-width:1;"/><text fill="#000000" font-family="sans-serif" font-size="13" lengthAdjust="spacing" textLength="30.4497" x="314.51" y="765.5706">offer</text></g><!--reverse link Member to MemberOffer--><g class="link" data-entity-1="ent0008" data-entity-2="ent0010" data-link-type="dependency" data-source-line="160" id="lnk27"><path codeLine="160" d="M492.1327,728.5102 C486.0827,744.3802 481.92,754.4938 475.51,769.5038 C462.92,798.9438 446.66,830.8638 433.09,856.2138" fill="none" id="Member-backto-MemberOffer" style="stroke:#181818;stroke-width:1;"/><polygon fill="#181818" points="494.27,722.9038,487.3264,729.8885,492.4889,727.5758,494.8017,732.7382,494.27,722.9038" style="stroke:#181818;stroke-width:1;"/><text fill="#000000" font-family="sans-serif" font-size="13" lengthAdjust="spacing" textLength="54.9199" x="481.51" y="765.5706">member</text></g><!--reverse link Offer to TimeTransfer--><g class="link" data-entity-1="ent0003" data-entity-2="ent0011" data-link-type="dependency" data-source-line="161" id="lnk29"><path codeLine="161" d="M179.7191,614.1398 C160.7791,654.2698 141.44,702.3038 131.51,752.5038 C125.89,780.8838 124.92,812.8438 125.63,840.0638" fill="none" id="Offer-backto-TimeTransfer" style="stroke:#181818;stroke-width:1;"/><polygon fill="#181818" points="182.28,608.7138,174.8213,615.1455,180.1459,613.2354,182.056,618.5601,182.28,608.7138" style="stroke:#181818;stroke-width:1;"/><text fill="#000000" font-family="sans-serif" font-size="13" lengthAdjust="spacing" textLength="30.4497" x="132.51" y="765.5706">offer</text></g><!--reverse link Member to TimeTransfer--><g class="link" data-entity-1="ent0008" data-entity-2="ent0011" data-link-type="dependency" data-source-line="162" id="lnk31"><path codeLine="162" d="M408.0003,722.0466 C388.1403,740.9166 371.36,754.5338 349.51,769.5038 C318.87,790.4938 304.06,781.6138 271.51,799.5038 C250.42,811.0938 228.91,825.4838 209.26,839.8338" fill="none" id="Member-backto-TimeTransfer" style="stroke:#181818;stroke-width:1;"/><polygon fill="#181818" points="412.35,717.9138,403.0703,721.2132,408.7253,721.3578,408.5807,727.0128,412.35,717.9138" style="stroke:#181818;stroke-width:1;"/><text fill="#000000" font-family="sans-serif" font-size="13" lengthAdjust="spacing" textLength="84.0112" x="370.51" y="765.5706">fromMember</text></g><!--reverse link Member to TimeTransfer--><g class="link" data-entity-1="ent0008" data-entity-2="ent0011" data-link-type="dependency" data-source-line="163" id="lnk33"><path codeLine="163" d="M407.51,690.157 C389.64,703.637 375.67,712.4138 356.51,722.5038 C305.96,749.1338 278.37,719.8138 231.51,752.5038 C200.27,774.2938 176.06,809.1338 159.19,839.9138" fill="none" id="Member-backto-TimeTransfer-1" style="stroke:#181818;stroke-width:1;"/><polygon fill="#181818" points="412.3,686.5438,402.7061,688.7703,408.3083,689.5548,407.5238,695.157,412.3,686.5438" style="stroke:#181818;stroke-width:1;"/><text fill="#000000" font-family="sans-serif" font-size="13" lengthAdjust="spacing" textLength="66.5234" x="232.51" y="765.5706">toMember</text></g><!--reverse link Member to TimeCheque--><g class="link" data-entity-1="ent0008" data-entity-2="ent0012" data-link-type="dependency" data-source-line="164" id="lnk35"><path codeLine="164" d="M562.0542,728.7225 C569.4742,816.7025 583.21,917.6638 610.51,1010.4738 C618.13,1036.3638 629.86,1063.3138 641.65,1087.0638" fill="none" id="Member-backto-TimeCheque" style="stroke:#181818;stroke-width:1;"/><polygon fill="#181818" points="561.55,722.7438,558.3205,732.0481,561.9702,727.7261,566.2922,731.3758,561.55,722.7438" style="stroke:#181818;stroke-width:1;"/><text fill="#000000" font-family="sans-serif" font-size="13" lengthAdjust="spacing" textLength="73.7598" x="611.51" y="909.5506">assignedTo</text></g><!--reverse link AccountingEntry to TimeCheque--><g class="link" data-entity-1="ent0013" data-entity-2="ent0012" data-link-type="dependency" data-source-line="165" id="lnk37"><path codeLine="165" d="M707.0953,1015.6147 C700.5853,1025.1847 698.18,1030.2038 693.51,1040.4738 C686.95,1054.9138 683.33,1071.3338 681.47,1087.2738" fill="none" id="AccountingEntry-backto-TimeCheque" style="stroke:#181818;stroke-width:1;stroke-dasharray:7,7;"/><polygon fill="#181818" points="710.47,1010.6538,702.1006,1015.8454,707.6577,1014.7879,708.7153,1020.345,710.47,1010.6538" style="stroke:#181818;stroke-width:1;"/><text fill="#000000" font-family="sans-serif" font-size="13" lengthAdjust="spacing" textLength="84.6523" x="694.51" y="1053.5406">accountedBy</text></g><!--reverse link Accountable to TimeCheque--><g class="link" data-entity-1="ent0015" data-entity-2="ent0012" data-link-type="extension" data-source-line="166" id="lnk39"><path codeLine="166" d="M979.4653,1013.5273 C953.0753,1033.1873 938.84,1041.8538 910.51,1057.4738 C876.89,1076.0038 864.8,1072.3538 829.51,1087.4738 C824.03,1089.8238 818.45,1092.2738 812.84,1094.7838" fill="none" id="Accountable-backto-TimeCheque" style="stroke:#181818;stroke-width:1;"/><polygon fill="none" points="993.9,1002.7738,975.8808,1008.7157,983.0498,1018.3389,993.9,1002.7738" style="stroke:#181818;stroke-width:1;"/></g><!--reverse link Member to AccountingEntry--><g class="link" data-entity-1="ent0008" data-entity-2="ent0013" data-link-type="dependency" data-source-line="167" id="lnk41"><path codeLine="167" d="M689.917,727.5635 C709.397,753.6835 725.33,775.0338 743.22,799.0338" fill="none" id="Member-backto-AccountingEntry" style="stroke:#181818;stroke-width:1;stroke-dasharray:7,7;"/><polygon fill="#181818" points="686.33,722.7538,688.5041,732.3597,689.3192,726.7618,694.917,727.577,686.33,722.7538" style="stroke:#181818;stroke-width:1;"/><text fill="#000000" font-family="sans-serif" font-size="13" lengthAdjust="spacing" textLength="133.0913" x="720.51" y="765.5706">accountableMember</text></g><!--reverse link AccountingEntry to Transaction--><g class="link" data-entity-1="ent0013" data-entity-2="ent0014" data-link-type="dependency" data-source-line="168" id="lnk43"><path codeLine="168" d="M844.6833,1016.49 C850.3633,1032.8 855.53,1043.2538 864.51,1057.4738 C873.03,1070.9538 883.85,1083.6738 895.45,1095.2638" fill="none" id="AccountingEntry-backto-Transaction" style="stroke:#181818;stroke-width:1;stroke-dasharray:7,7;"/><polygon fill="#181818" points="842.71,1010.8238,841.8924,1020.6386,844.3544,1015.5456,849.4474,1018.0076,842.71,1010.8238" style="stroke:#181818;stroke-width:1;"/><text fill="#000000" font-family="sans-serif" font-size="13" lengthAdjust="spacing" textLength="84.6523" x="865.51" y="1053.5406">accountedBy</text></g><!--reverse link Accountable to Transaction--><g class="link" data-entity-1="ent0015" data-entity-2="ent0014" data-link-type="extension" data-source-line="169" id="lnk45"><path codeLine="169" d="M1096.4868,1020.1995 C1092.4168,1039.0795 1090.25,1040.6338 1081.51,1057.4738 C1074.57,1070.8438 1065.27,1083.5938 1055.11,1095.2538" fill="none" id="Accountable-backto-Transaction" style="stroke:#181818;stroke-width:1;"/><polygon fill="none" points="1100.28,1002.6038,1090.6216,1018.9352,1102.3521,1021.4639,1100.28,1002.6038" style="stroke:#181818;stroke-width:1;"/></g><g class="legend" data-source-line="173"><rect fill="#DDDDDD" height="287.0469" rx="7.5" ry="7.5" style="stroke:#000000;stroke-width:1;" width="303.3984" x="544.1574" y="1251.255"/><text fill="#000000" font-family="sans-serif" font-size="14" font-weight="bold" lengthAdjust="spacing" textLength="266.5674" x="549.1574" y="1269.2501">Definition of the used Data-Types</text><text fill="#000000" font-family="sans-serif" font-size="14" lengthAdjust="spacing" textLength="4.4502" x="549.1574" y="1285.547">&#160;</text><text fill="#000000" font-family="sans-serif" font-size="14" lengthAdjust="spacing" textLength="184.6455" x="549.1574" y="1301.8439">Bool : BOOLEAN (Boolean)</text><text fill="#000000" font-family="sans-serif" font-size="14" lengthAdjust="spacing" textLength="203.8408" x="549.1574" y="1318.1407">Code : VARCHAR(10) (String)</text><text fill="#000000" font-family="sans-serif" font-size="14" lengthAdjust="spacing" textLength="170.2012" x="549.1574" y="1334.4376">Date : DATE (LocalDate)</text><text fill="#000000" font-family="sans-serif" font-size="14" lengthAdjust="spacing" textLength="125.7607" x="549.1574" y="1350.7345">ID : BIGINT (Long)</text><text fill="#000000" font-family="sans-serif" font-size="14" lengthAdjust="spacing" textLength="159.2637" x="549.1574" y="1367.0314">Int : INTEGER (Integer)</text><text fill="#000000" font-family="sans-serif" font-size="14" lengthAdjust="spacing" textLength="237.9658" x="549.1574" y="1383.3282">LongCode : VARCHAR(20) (String)</text><text fill="#000000" font-family="sans-serif" font-size="14" lengthAdjust="spacing" textLength="261.7207" x="549.1574" y="1399.6251">LongString : VARCHAR(4000) (String)</text><text fill="#000000" font-family="sans-serif" font-size="14" lengthAdjust="spacing" textLength="262.2471" x="549.1574" y="1415.922">Money : NUMERIC(12,2) (BigDecimal)</text><text fill="#000000" font-family="sans-serif" font-size="14" lengthAdjust="spacing" textLength="209.3027" x="549.1574" y="1432.2189">Name : VARCHAR(80) (String)</text><text fill="#000000" font-family="sans-serif" font-size="14" lengthAdjust="spacing" textLength="229.9746" x="549.1574" y="1448.5157">Number : NUMERIC (BigDecimal)</text><text fill="#000000" font-family="sans-serif" font-size="14" lengthAdjust="spacing" textLength="186.2178" x="549.1574" y="1464.8126">Short : SMALLINT (Integer)</text><text fill="#000000" font-family="sans-serif" font-size="14" lengthAdjust="spacing" textLength="256.2588" x="549.1574" y="1481.1095">ShortString : VARCHAR(250) (String)</text><text fill="#000000" font-family="sans-serif" font-size="14" lengthAdjust="spacing" textLength="168.5127" x="549.1574" y="1497.4064">Time : TIME (LocalTime)</text><text fill="#000000" font-family="sans-serif" font-size="14" lengthAdjust="spacing" textLength="293.3984" x="549.1574" y="1513.7032">Timestamp : TIMESTAMP (LocalDateTime)</text><text fill="#000000" font-family="sans-serif" font-size="14" lengthAdjust="spacing" textLength="134.9482" x="549.1574" y="1530.0001">YEAR : DATE (Year)</text></g><?plantuml-src jLZ1Sjis4BtpAz2RvB4qjfjaCZwaGrbAeh4bPsmbRNg3o2M9c0HL0BHZf_cJ7lCPkVd7kWkG4acJ6NNQ-YAPkrWi7jw-NSe8auAtdBnbCsc4kMUBF8GqzTw012L06PO9mtupyDcmAJVSca4ndh6JevCNewFZqS_7hCZOyRFJvozEdnzx84DZW-8t6z7NEWy4DoANx8l7y6_2jT12HhdAx6EGx053V005GXwoa5kl29BKC2s21FUJUP0mj8eOz25xc5WFjq3B8iiefKAp4BAwHK4ij05bdut7zkDB920DlpB9Cs2dR8aVZUSXw429ZKttb5taChusIiYuuQID0Z1Top6PDIRZLfuXMWthWzYWwSdZW70gWtsjSBkC8Wpa4FDb3ElS06Qds4AOE1M0Nm_PdL0XMuEmNcJ4aw-B82bap6xn1B-3C1eH36wqTRa5TOSt1AOBaW3pwagl2SbraYjJOh9DzYfFeSmLlwPuewAwq35x_8iW2GMKDkjs1of4Dux9MjC4dOF4Y1XJBrqmMJmso75Nia9FSgx21PHuJ_8yRJduOIPajscbWEj2zQsyXa21uUg-9t0H2fFth5s93Cu1Ddsn5q87M69SGewCxN1HYEMoniujo7wM5z9CyumB-O6dHONuQnuaATK9kybbX0XIvQwv0lQEAunGLK3q-5snynmhGcv9f94yHl6OuQKxhnfbncoAfo0-EA8XcdYXPOtDbkyNI8q8Yn9ruWTywgm4Ri-2rWNM_tt3TCjJ4RvMUOPMr1nuQbpbbMcBpUmMlvHuh43XnGChP4WSv58RdXhBgqEM5TgLWfKK58qOk28Gi9uT9t_gEak8kptPzChgYx8YPb5o-y-4p7WweYVQWMwvxvmHhA9K4vBMsMZ1HMfJ9V_nFwbBo6XfXmZ1vurGe7t2b-Y8vyyskxJBcd79JZ6rdQ9GhLVgEQQ3kC1RjfHQIo2IxB0b55ocF7Pkl30vIJhIPrky9QYT1yji8ijiJQKobwQfiSXmmsiw_EJyji_q6V40Q2_AzKyWYeJIPjdJ0rBURriBPP8w6_QwaGtN-Yx74chgPztbKuwL9EDfJsYyJn5BYqUVo__ObHgb6mH5LgIuU_WsBvGkxwv5Bvs8pMkeIcAQtnGPsjrz4ia-FNvBb5KjrQHOAKXZjgBAvG6jMDrlN0vOGTXPY8BpvTdbOjR5AfmhFc9DOreVP_vLap6xa7qWjeIfTQgUfgntwO_PUVhuJQ7KMAUreWv7PI2mkBXcZzynJCABZVcbkwtvcDvjrHUssrCPMq1s-vDGnmLfjHAHiUs-oeBvZCi6h6pYb0WRWy9sWLbV08A9KZJkaxlBw1hKhGWwOKhAcxTiRd8jjy1sZWbqYhC4_jYshbspOICS0f4s1ZEFSSQC3OcYcskub4nl7hzX8oDTeG67pfknSomh55INUuilUt6b_nZ_WYf-4901Juv3DSuGvTJhnZ9Dq69ayu3dRM4mEkT5TBZZKf3mo3WU_GeYaNHn6hIcFbRekywRusvplaxX37LCzrHmvJCdIPfF-uvkWUpGXZtGgRdu_SsURx7gYxF7z5cx-QesqpI6Z8OLQcAI9oZcDE4m7ni-NqCNSl_DiNymsFpe99wGoEw8OxNvkzifJpFVscmDSnoYDRj3CQcAmKtKDA8DQXLrGsngYgjbr7Wy7ZO0m14noJ51bmsBmVWj5X651iEcD_MIbkyytCF9AUbJrztkhKhUot5-VKbtqVQTY7WAWS1vhENlE8dkY7qv48sBpVYLUvKvjLEursnbes8pUiMsRnnkUcdvk1Xj1JYjU0xXvBuZwf-lwhVkrNkDszHzFsKvVNROsqarsaLNY0w7ROm8P-z5RvojcybhJgMgjrn8dcC9EB3NdVR1g1Mp1L1xhOkusxPDDg-k47jjN_Fls1__i4FXYxHtS32rhq3MCu-OmRUmGcE_fLzBHiHUVN3WUTJCgQTVNbxC_2KRqF_0vT0xSxFz1__gxAr_DJW-6hA1u_VGgoJ6NytOu28FU4fFXjvyIg7cR-RB5JqdrxcL77mmUpExOWCIZ1ZKqAlclTeM9_KjThzlr3oU7HtLVQoGKHjvlvXTpSy6noU79sZULTRGAuVbAi3B-l9bDNkMwvihhGgI6YxyYmjxe6tkDO6if_-y7fneGYyvyqK54Jrnp-rRJscyNlcBTpKGdHVDXrk0QMOSqizNxcR_1W00?></g></svg>