<svg xmlns="http://www.w3.org/2000/svg" xmlns:xlink="http://www.w3.org/1999/xlink" version="1.1" data-diagram-type="CLASS" style="width:2008px;height:1788px;background:#FFFFFF;" width="2008px" height="1788px" viewBox="0 0 2008 1788" zoomAndPan="magnify" preserveAspectRatio="none" contentStyleType="text/css"><?plantuml 1.2026.7beta11?><defs/><g font-family="sans-serif" lengthAdjust="spacing"><g class="title" data-source-line="5"><text x="928.905" y="22.995" fill="#000" font-size="14" textLength="143.356" font-weight="700">NBH Entity Modell</text><text x="756.882" y="39.292" fill="#000" font-size="14" textLength="487.402" font-weight="700">Generiert mit Xtext DataModeler am 2026-08-04 um 16:15:30</text></g><!--class Association--><g class="entity" data-qualified-name="Association" id="ent0001" data-source-line="10"><rect x="1129.49" y="60.594" width="257.643" height="227.266" fill="#F1F1F1" style="stroke:#181818;stroke-width:0.5;" rx="2.5" ry="2.5"/><ellipse cx="1214.204" cy="76.594" rx="11" ry="11" fill="#ADD1B2" style="stroke:#181818;stroke-width:1;"/><path d="M1218.314,82.594 L1210.595,82.594 L1210.595,70.203 L1218.314,70.203 L1218.314,72.359 L1213.048,72.359 L1213.048,75.031 L1217.814,75.031 L1217.814,77.188 L1213.048,77.188 L1213.048,80.438 L1218.314,80.438 L1218.314,82.594 Z " fill="#000"/><text x="1234.704" y="81.44" fill="#000" font-size="14" textLength="79.714">Association</text><line x1="1130.49" y1="92.594" x2="1386.133" y2="92.594" style="stroke:#181818;stroke-width:0.5;"/><text x="1135.49" y="109.589" fill="#000" font-size="14" textLength="245.643">Basisinformationen zum Verein, da</text><text x="1135.49" y="125.886" fill="#000" font-size="14" textLength="197.189">fehlt sicher noch einiges, zB</text><text x="1135.49" y="142.183" fill="#000" font-size="14" textLength="176.791">Vereinsnummer aus dem</text><text x="1135.49" y="158.479" fill="#000" font-size="14" textLength="106.914">Vereinsregister</text><line x1="1130.49" y1="165.781" x2="1386.133" y2="165.781" style="stroke:#181818;stroke-width:1;stroke-dasharray:1,2;"/><text x="1135.49" y="182.776" fill="#000" font-size="14" textLength="94.623">name : Name</text><text x="1135.49" y="199.073" fill="#000" font-size="14" textLength="146.815">mdDescription : Text</text><text x="1135.49" y="215.37" fill="#000" font-size="14" textLength="156.181">htmlDescription : Text</text><text x="1135.49" y="231.667" fill="#000" font-size="14" textLength="96.175">street : Name</text><text x="1135.49" y="247.964" fill="#000" font-size="14" textLength="138.223">number : LongCode</text><text x="1135.49" y="264.261" fill="#000" font-size="14" textLength="69.583">zip : Code</text><text x="1135.49" y="280.558" fill="#000" font-size="14" textLength="80.281">city : Name</text></g><!--class Offer--><g class="entity" data-qualified-name="Offer" id="ent0002" data-source-line="24"><rect x="535.12" y="544.124" width="246.377" height="129.484" fill="#F1F1F1" style="stroke:#181818;stroke-width:0.5;" rx="2.5" ry="2.5"/><ellipse cx="636.435" cy="560.124" rx="11" ry="11" fill="#ADD1B2" style="stroke:#181818;stroke-width:1;"/><path d="M640.545,566.124 L632.826,566.124 L632.826,553.733 L640.545,553.733 L640.545,555.889 L635.279,555.889 L635.279,558.561 L640.045,558.561 L640.045,560.718 L635.279,560.718 L635.279,563.968 L640.545,563.968 L640.545,566.124 Z " fill="#000"/><text x="656.935" y="564.97" fill="#000" font-size="14" textLength="35.246">Offer</text><line x1="536.12" y1="576.124" x2="780.497" y2="576.124" style="stroke:#181818;stroke-width:0.5;"/><text x="541.12" y="593.119" fill="#000" font-size="14" textLength="234.377">Angebote der Mitglieder, wird bei</text><text x="541.12" y="609.416" fill="#000" font-size="14" textLength="230.398">der Verbuchung von Zeitschecks</text><text x="541.12" y="625.713" fill="#000" font-size="14" textLength="74.58">verwendet</text><line x1="536.12" y1="633.014" x2="780.497" y2="633.014" style="stroke:#181818;stroke-width:1;stroke-dasharray:1,2;"/><text x="541.12" y="650.009" fill="#000" font-size="14" textLength="83.221">code : Code</text><text x="541.12" y="666.306" fill="#000" font-size="14" textLength="170.81">description : ShortString</text></g><!--class Role--><g class="entity" data-qualified-name="Role" id="ent0003" data-source-line="32"><rect x="835.06" y="60.594" width="244.497" height="227.266" fill="#F1F1F1" style="stroke:#181818;stroke-width:0.5;" rx="2.5" ry="2.5"/><ellipse cx="937.661" cy="76.594" rx="11" ry="11" fill="#ADD1B2" style="stroke:#181818;stroke-width:1;"/><path d="M941.77,82.594 L934.051,82.594 L934.051,70.203 L941.77,70.203 L941.77,72.359 L936.504,72.359 L936.504,75.031 L941.27,75.031 L941.27,77.188 L936.504,77.188 L936.504,80.438 L941.77,80.438 L941.77,82.594 Z " fill="#000"/><text x="958.161" y="81.44" fill="#000" font-size="14" textLength="30.796">Role</text><line x1="836.06" y1="92.594" x2="1078.557" y2="92.594" style="stroke:#181818;stroke-width:0.5;"/><text x="841.06" y="109.589" fill="#000" font-size="14" textLength="231.561">Rollen im Verein. Über die Rollen</text><text x="841.06" y="125.886" fill="#000" font-size="14" textLength="232.497">werden auch die Berechtigungen</text><text x="841.06" y="142.183" fill="#000" font-size="14" textLength="70.978">vergeben.</text><line x1="836.06" y1="149.484" x2="1078.557" y2="149.484" style="stroke:#181818;stroke-width:1;stroke-dasharray:1,2;"/><text x="841.06" y="166.479" fill="#000" font-size="14" textLength="154.403">isBoardMember : Bool</text><text x="841.06" y="182.776" fill="#000" font-size="14" textLength="123.218">isTreasurer : Bool</text><text x="841.06" y="199.073" fill="#000" font-size="14" textLength="123.102">isSecretary : Bool</text><text x="841.06" y="215.37" fill="#000" font-size="14" textLength="106.463">isAuditor : Bool</text><text x="841.06" y="231.667" fill="#000" font-size="14" textLength="139.781">isTimeKeeper : Bool</text><text x="841.06" y="247.964" fill="#000" font-size="14" textLength="100.29">isAdmin : Bool</text><text x="841.06" y="264.261" fill="#000" font-size="14" textLength="153.576">isMiscellaneous : Bool</text><text x="841.06" y="280.558" fill="#000" font-size="14" textLength="123.047">roleName : Name</text></g><!--class AmountDomainValue--><g class="entity" data-qualified-name="AmountDomainValue" id="ent0004" data-source-line="46"><rect x="1421.7" y="85.034" width="269.223" height="178.375" fill="#F1F1F1" style="stroke:#181818;stroke-width:0.5;" rx="2.5" ry="2.5"/><ellipse cx="1477.625" cy="101.034" rx="11" ry="11" fill="#ADD1B2" style="stroke:#181818;stroke-width:1;"/><path d="M1481.734,107.034 L1474.015,107.034 L1474.015,94.643 L1481.734,94.643 L1481.734,96.799 L1476.469,96.799 L1476.469,99.471 L1481.234,99.471 L1481.234,101.628 L1476.469,101.628 L1476.469,104.878 L1481.734,104.878 L1481.734,107.034 Z " fill="#000"/><text x="1498.125" y="105.88" fill="#000" font-size="14" textLength="148.873">AmountDomainValue</text><line x1="1422.7" y1="117.034" x2="1689.923" y2="117.034" style="stroke:#181818;stroke-width:0.5;"/><text x="1427.7" y="134.029" fill="#000" font-size="14" textLength="256.505">Fachliche konfigurierbare Parameter</text><text x="1427.7" y="150.326" fill="#000" font-size="14" textLength="225.764">für Kosten Mitgliedsbeitrag oder</text><text x="1427.7" y="166.623" fill="#000" font-size="14" textLength="257.223">Zeitschecks. Der Code wird in einem</text><text x="1427.7" y="182.919" fill="#000" font-size="14" textLength="105.034">ENUM definiert</text><line x1="1422.7" y1="190.221" x2="1689.923" y2="190.221" style="stroke:#181818;stroke-width:1;stroke-dasharray:1,2;"/><text x="1427.7" y="207.216" fill="#000" font-size="14" textLength="117.346">code : LongCode</text><text x="1427.7" y="223.513" fill="#000" font-size="14" textLength="114.051">amount : Money</text><text x="1427.7" y="239.81" fill="#000" font-size="14" textLength="116.621">validFrom : Date</text><text x="1427.7" y="256.107" fill="#000" font-size="14" textLength="97.727">validTo : Date</text></g><!--class Event--><g class="entity" data-qualified-name="Event" id="ent0005" data-source-line="57"><rect x="1725.44" y="125.784" width="267.726" height="96.891" fill="#F1F1F1" style="stroke:#181818;stroke-width:0.5;" rx="2.5" ry="2.5"/><ellipse cx="1835" cy="141.784" rx="11" ry="11" fill="#ADD1B2" style="stroke:#181818;stroke-width:1;"/><path d="M1839.109,147.784 L1831.39,147.784 L1831.39,135.393 L1839.109,135.393 L1839.109,137.549 L1833.843,137.549 L1833.843,140.221 L1838.609,140.221 L1838.609,142.378 L1833.843,142.378 L1833.843,145.628 L1839.109,145.628 L1839.109,147.784 Z " fill="#000"/><text x="1855.5" y="146.63" fill="#000" font-size="14" textLength="40.106">Event</text><line x1="1726.44" y1="157.784" x2="1992.166" y2="157.784" style="stroke:#181818;stroke-width:0.5;"/><text x="1731.44" y="174.779" fill="#000" font-size="14" textLength="255.726">Termine und Veranstaltungen, muss</text><text x="1731.44" y="191.076" fill="#000" font-size="14" textLength="198.276">noch ausgearbeitet werden!</text><line x1="1726.44" y1="198.378" x2="1992.166" y2="198.378" style="stroke:#181818;stroke-width:1;stroke-dasharray:1,2;"/><text x="1731.44" y="215.373" fill="#000" font-size="14" textLength="78.647">date : Date</text></g><!--class TextContent--><g class="entity" data-qualified-name="TextContent" id="ent0006" data-source-line="63"><rect x="1132.75" y="535.974" width="251.121" height="145.781" fill="#F1F1F1" style="stroke:#181818;stroke-width:0.5;" rx="2.5" ry="2.5"/><ellipse cx="1210.751" cy="551.974" rx="11" ry="11" fill="#ADD1B2" style="stroke:#181818;stroke-width:1;"/><path d="M1214.861,557.974 L1207.142,557.974 L1207.142,545.583 L1214.861,545.583 L1214.861,547.739 L1209.595,547.739 L1209.595,550.411 L1214.361,550.411 L1214.361,552.568 L1209.595,552.568 L1209.595,555.818 L1214.861,555.818 L1214.861,557.974 Z " fill="#000"/><text x="1231.251" y="556.82" fill="#000" font-size="14" textLength="86.618">TextContent</text><line x1="1133.75" y1="567.974" x2="1382.871" y2="567.974" style="stroke:#181818;stroke-width:0.5;"/><text x="1138.75" y="584.969" fill="#000" font-size="14" textLength="215.264">Texte für die HP. Erfassung als</text><text x="1138.75" y="601.266" fill="#000" font-size="14" textLength="239.121">MarkDown, angezeigt wird daraus</text><text x="1138.75" y="617.563" fill="#000" font-size="14" textLength="123.806">generiertes HTML</text><line x1="1133.75" y1="624.864" x2="1382.871" y2="624.864" style="stroke:#181818;stroke-width:1;stroke-dasharray:1,2;"/><text x="1138.75" y="641.859" fill="#000" font-size="14" textLength="173.024">contentCode : LongCode</text><text x="1138.75" y="658.156" fill="#000" font-size="14" textLength="98.021">mdText : Text</text><text x="1138.75" y="674.453" fill="#000" font-size="14" textLength="107.386">htmlText : Text</text></g><!--class RegistrationCode--><g class="entity" data-qualified-name="RegistrationCode" id="ent0007" data-source-line="72"><rect x="1418.93" y="535.974" width="256.747" height="145.781" fill="#F1F1F1" style="stroke:#181818;stroke-width:0.5;" rx="2.5" ry="2.5"/><ellipse cx="1482.607" cy="551.974" rx="11" ry="11" fill="#ADD1B2" style="stroke:#181818;stroke-width:1;"/><path d="M1486.716,557.974 L1478.997,557.974 L1478.997,545.583 L1486.716,545.583 L1486.716,547.739 L1481.451,547.739 L1481.451,550.411 L1486.216,550.411 L1486.216,552.568 L1481.451,552.568 L1481.451,555.818 L1486.716,555.818 L1486.716,557.974 Z " fill="#000"/><text x="1503.107" y="556.82" fill="#000" font-size="14" textLength="120.894">RegistrationCode</text><line x1="1419.93" y1="567.974" x2="1674.677" y2="567.974" style="stroke:#181818;stroke-width:0.5;"/><text x="1424.93" y="584.969" fill="#000" font-size="14" textLength="244.747">Einmal-Codes für die Registrierung</text><text x="1424.93" y="601.266" fill="#000" font-size="14" textLength="145.626">mit E-Mail und Code.</text><line x1="1419.93" y1="608.568" x2="1674.677" y2="608.568" style="stroke:#181818;stroke-width:1;stroke-dasharray:1,2;"/><text x="1424.93" y="625.563" fill="#000" font-size="14" textLength="83.221">code : Code</text><text x="1424.93" y="641.859" fill="#000" font-size="14" textLength="93.529">email : Name</text><text x="1424.93" y="658.156" fill="#000" font-size="14" textLength="158.601">expiresAt : Timestamp</text><text x="1424.93" y="674.453" fill="#000" font-size="14" textLength="135.372">failedAttempts : Int</text></g><!--class Member--><g class="entity" data-qualified-name="Member" id="ent0008" data-source-line="81"><rect x="816.54" y="364.854" width="281.527" height="488.016" fill="#F1F1F1" style="stroke:#181818;stroke-width:0.5;" rx="2.5" ry="2.5"/><ellipse cx="924.261" cy="380.854" rx="11" ry="11" fill="#ADD1B2" style="stroke:#181818;stroke-width:1;"/><path d="M928.37,386.854 L920.651,386.854 L920.651,374.463 L928.37,374.463 L928.37,376.619 L923.104,376.619 L923.104,379.291 L927.87,379.291 L927.87,381.448 L923.104,381.448 L923.104,384.698 L928.37,384.698 L928.37,386.854 Z " fill="#000"/><text x="944.761" y="385.7" fill="#000" font-size="14" textLength="57.586">Member</text><line x1="817.54" y1="396.854" x2="1097.067" y2="396.854" style="stroke:#181818;stroke-width:0.5;"/><text x="822.54" y="413.849" fill="#000" font-size="14" textLength="223.159">Die Mitglieder des Vereins. Eine</text><text x="822.54" y="430.146" fill="#000" font-size="14" textLength="269.527">Mitgliedsnummer muss bei Neuanlage</text><text x="822.54" y="446.443" fill="#000" font-size="14" textLength="219.037">automatisch vergeben werden.</text><line x1="817.54" y1="453.744" x2="1097.067" y2="453.744" style="stroke:#181818;stroke-width:1;stroke-dasharray:1,2;"/><text x="822.54" y="470.739" fill="#000" font-size="14" textLength="130.006">memberNmbr : Int</text><text x="822.54" y="487.036" fill="#000" font-size="14" textLength="153.104">salutation : LongCode</text><text x="822.54" y="503.333" fill="#000" font-size="14" textLength="110.954">title : LongCode</text><text x="822.54" y="519.63" fill="#000" font-size="14" textLength="125.535">institution : Name</text><text x="822.54" y="535.927" fill="#000" font-size="14" textLength="123.58">firstName : Name</text><text x="822.54" y="552.224" fill="#000" font-size="14" textLength="121.475">lastName : Name</text><text x="822.54" y="568.521" fill="#000" font-size="14" textLength="111.542">birthdate : Date</text><text x="822.54" y="584.818" fill="#000" font-size="14" textLength="93.529">email : Name</text><text x="822.54" y="601.114" fill="#000" font-size="14" textLength="183.634">phoneNumber : LongCode</text><text x="822.54" y="617.411" fill="#000" font-size="14" textLength="159.681">password : ShortString</text><text x="822.54" y="633.708" fill="#000" font-size="14" textLength="127.408">joiningDate : Date</text><text x="822.54" y="650.005" fill="#000" font-size="14" textLength="159.25">resignationDate : Date</text><text x="822.54" y="666.302" fill="#000" font-size="14" textLength="96.175">street : Name</text><text x="822.54" y="682.599" fill="#000" font-size="14" textLength="138.223">number : LongCode</text><text x="822.54" y="698.896" fill="#000" font-size="14" textLength="114.591">stair : LongCode</text><text x="822.54" y="715.193" fill="#000" font-size="14" textLength="115.356">door : LongCode</text><text x="822.54" y="731.489" fill="#000" font-size="14" textLength="69.583">zip : Code</text><text x="822.54" y="747.786" fill="#000" font-size="14" textLength="80.281">city : Name</text><text x="822.54" y="764.083" fill="#000" font-size="14" textLength="179.956">latitude : DoublePrecision</text><text x="822.54" y="780.38" fill="#000" font-size="14" textLength="192.213">longitude : DoublePrecision</text><text x="822.54" y="796.677" fill="#000" font-size="14" textLength="216.002">directDebitAuthorization : Bool</text><text x="822.54" y="812.974" fill="#000" font-size="14" textLength="176.976">isImportedMember : Bool</text><text x="822.54" y="829.271" fill="#000" font-size="14" textLength="164.404">isSystemAccount : Bool</text><text x="822.54" y="845.568" fill="#000" font-size="14" textLength="163.939">accumulatedHours : Int</text></g><!--class MembershipFee--><g class="entity" data-qualified-name="MembershipFee" id="ent0009" data-source-line="111"><rect x="925.11" y="1234.134" width="250.403" height="178.375" fill="#F1F1F1" style="stroke:#181818;stroke-width:0.5;" rx="2.5" ry="2.5"/><ellipse cx="990.157" cy="1250.134" rx="11" ry="11" fill="#ADD1B2" style="stroke:#181818;stroke-width:1;"/><path d="M994.267,1256.134 L986.548,1256.134 L986.548,1243.743 L994.267,1243.743 L994.267,1245.899 L989.001,1245.899 L989.001,1248.571 L993.767,1248.571 L993.767,1250.728 L989.001,1250.728 L989.001,1253.978 L994.267,1253.978 L994.267,1256.134 Z " fill="#000"/><text x="1010.657" y="1254.98" fill="#000" font-size="14" textLength="111.809">MembershipFee</text><line x1="926.11" y1="1266.134" x2="1174.513" y2="1266.134" style="stroke:#181818;stroke-width:0.5;"/><text x="931.11" y="1283.129" fill="#000" font-size="14" textLength="210.964">Dokumentation des jährlichen</text><text x="931.11" y="1299.426" fill="#000" font-size="14" textLength="238.403">Mitgliedsbeitrag. TransactionType</text><text x="931.11" y="1315.723" fill="#000" font-size="14" textLength="127.429">ist immer INCOME</text><line x1="926.11" y1="1323.024" x2="1174.513" y2="1323.024" style="stroke:#181818;stroke-width:1;stroke-dasharray:1,2;"/><text x="931.11" y="1340.019" fill="#000" font-size="14" textLength="101.069">forYear : YEAR</text><text x="931.11" y="1356.316" fill="#000" font-size="14" textLength="136.705">doNotCharge : Bool</text><text x="931.11" y="1372.613" fill="#000" font-size="14" textLength="159.626">transactionDate : Date</text><text x="931.11" y="1388.91" fill="#000" font-size="14" textLength="114.051">amount : Money</text><text x="931.11" y="1405.207" fill="#000" font-size="14" textLength="191.557">liableMemberName : Name</text></g><!--class TimeTransfer--><g class="entity" data-qualified-name="TimeTransfer" id="ent0010" data-source-line="122"><rect x="611.8" y="978.764" width="247.02" height="129.484" fill="#F1F1F1" style="stroke:#181818;stroke-width:0.5;" rx="2.5" ry="2.5"/><ellipse cx="684.538" cy="994.764" rx="11" ry="11" fill="#ADD1B2" style="stroke:#181818;stroke-width:1;"/><path d="M688.647,1000.764 L680.928,1000.764 L680.928,988.373 L688.647,988.373 L688.647,990.529 L683.382,990.529 L683.382,993.201 L688.147,993.201 L688.147,995.358 L683.382,995.358 L683.382,998.608 L688.647,998.608 L688.647,1000.764 Z " fill="#000"/><text x="705.038" y="999.61" fill="#000" font-size="14" textLength="93.044">TimeTransfer</text><line x1="612.8" y1="1010.764" x2="857.82" y2="1010.764" style="stroke:#181818;stroke-width:0.5;"/><text x="617.8" y="1027.759" fill="#000" font-size="14" textLength="220.938">Zeitgutschrift von Mitglied A an</text><text x="617.8" y="1044.056" fill="#000" font-size="14" textLength="235.02">Mitglied B für erbrachte Leistung.</text><line x1="612.8" y1="1051.358" x2="857.82" y2="1051.358" style="stroke:#181818;stroke-width:1;stroke-dasharray:1,2;"/><text x="617.8" y="1068.353" fill="#000" font-size="14" textLength="146.337">dateOfService : Date</text><text x="617.8" y="1084.649" fill="#000" font-size="14" textLength="90.549">hours : Short</text><text x="617.8" y="1100.946" fill="#000" font-size="14" textLength="124.51">note : ShortString</text></g><!--class TimeCheque--><g class="entity" data-qualified-name="TimeCheque" id="ent0011" data-source-line="130"><rect x="1511.13" y="1242.284" width="260.363" height="162.078" fill="#F1F1F1" style="stroke:#181818;stroke-width:0.5;" rx="2.5" ry="2.5"/><ellipse cx="1592.898" cy="1258.284" rx="11" ry="11" fill="#ADD1B2" style="stroke:#181818;stroke-width:1;"/><path d="M1597.007,1264.284 L1589.289,1264.284 L1589.289,1251.893 L1597.007,1251.893 L1597.007,1254.049 L1591.742,1254.049 L1591.742,1256.721 L1596.507,1256.721 L1596.507,1258.878 L1591.742,1258.878 L1591.742,1262.128 L1597.007,1262.128 L1597.007,1264.284 Z " fill="#000"/><text x="1613.398" y="1263.13" fill="#000" font-size="14" textLength="88.327">TimeCheque</text><line x1="1512.13" y1="1274.284" x2="1770.493" y2="1274.284" style="stroke:#181818;stroke-width:0.5;"/><text x="1517.13" y="1291.279" fill="#000" font-size="14" textLength="230.556">Zeitscheck - zuerst angelegt und</text><text x="1517.13" y="1307.576" fill="#000" font-size="14" textLength="245.649">dann später verbucht vom Kassier.</text><text x="1517.13" y="1323.873" fill="#000" font-size="14" textLength="248.363">TransactionType ist immer INCOME</text><line x1="1512.13" y1="1331.174" x2="1770.493" y2="1331.174" style="stroke:#181818;stroke-width:1;stroke-dasharray:1,2;"/><text x="1517.13" y="1348.169" fill="#000" font-size="14" textLength="90.549">hours : Short</text><text x="1517.13" y="1364.466" fill="#000" font-size="14" textLength="159.626">transactionDate : Date</text><text x="1517.13" y="1380.763" fill="#000" font-size="14" textLength="114.051">amount : Money</text><text x="1517.13" y="1397.06" fill="#000" font-size="14" textLength="191.557">liableMemberName : Name</text></g><!--class AccountingEntry--><g class="entity" data-qualified-name="AccountingEntry" id="ent0012" data-source-line="140"><rect x="1043.15" y="938.024" width="236.314" height="210.969" fill="#F1F1F1" style="stroke:#181818;stroke-width:0.5;" rx="2.5" ry="2.5"/><ellipse cx="1099.222" cy="954.024" rx="11" ry="11" fill="#ADD1B2" style="stroke:#181818;stroke-width:1;"/><path d="M1103.331,960.024 L1095.612,960.024 L1095.612,947.633 L1103.331,947.633 L1103.331,949.789 L1098.066,949.789 L1098.066,952.461 L1102.831,952.461 L1102.831,954.618 L1098.066,954.618 L1098.066,957.868 L1103.331,957.868 L1103.331,960.024 Z " fill="#000"/><text x="1119.722" y="958.87" fill="#000" font-size="14" textLength="115.671">AccountingEntry</text><line x1="1044.15" y1="970.024" x2="1278.464" y2="970.024" style="stroke:#181818;stroke-width:0.5;"/><text x="1049.15" y="987.019" fill="#000" font-size="14" textLength="158.799">Buchungsdatensatz zu</text><text x="1049.15" y="1003.316" fill="#000" font-size="14" textLength="224.314">Zeitscheck-Kauf, Mitgliedschaft,</text><text x="1049.15" y="1019.613" fill="#000" font-size="14" textLength="163.68">Weihnachtsessen, usw.</text><line x1="1044.15" y1="1026.914" x2="1278.464" y2="1026.914" style="stroke:#181818;stroke-width:1;stroke-dasharray:1,2;"/><text x="1049.15" y="1043.909" fill="#000" font-size="14" textLength="181.966">accountableName : Name</text><text x="1049.15" y="1060.206" fill="#000" font-size="14" textLength="127.285">accountableId : ID</text><text x="1049.15" y="1076.503" fill="#000" font-size="14" textLength="162.88">transactionType : Code</text><text x="1049.15" y="1092.8" fill="#000" font-size="14" textLength="159.626">transactionDate : Date</text><text x="1049.15" y="1109.097" fill="#000" font-size="14" textLength="194.134">transactionAmount : Money</text><text x="1049.15" y="1125.394" fill="#000" font-size="14" textLength="157.965">accountingDate : Date</text><text x="1049.15" y="1141.691" fill="#000" font-size="14" textLength="170.81">description : ShortString</text></g><!--class Transaction--><g class="entity" data-qualified-name="Transaction" id="ent0013" data-source-line="153"><rect x="1210.03" y="1250.434" width="266.55" height="145.781" fill="#F1F1F1" style="stroke:#181818;stroke-width:0.5;" rx="2.5" ry="2.5"/><ellipse cx="1297.981" cy="1266.434" rx="11" ry="11" fill="#ADD1B2" style="stroke:#181818;stroke-width:1;"/><path d="M1302.091,1272.434 L1294.372,1272.434 L1294.372,1260.043 L1302.091,1260.043 L1302.091,1262.199 L1296.825,1262.199 L1296.825,1264.871 L1301.591,1264.871 L1301.591,1267.028 L1296.825,1267.028 L1296.825,1270.278 L1302.091,1270.278 L1302.091,1272.434 Z " fill="#000"/><text x="1318.481" y="1271.28" fill="#000" font-size="14" textLength="82.147">Transaction</text><line x1="1211.03" y1="1282.434" x2="1475.58" y2="1282.434" style="stroke:#181818;stroke-width:0.5;"/><text x="1216.03" y="1299.429" fill="#000" font-size="14" textLength="254.55">Allgemeine Einnahme oder Ausgabe</text><line x1="1211.03" y1="1306.731" x2="1475.58" y2="1306.731" style="stroke:#181818;stroke-width:1;stroke-dasharray:1,2;"/><text x="1216.03" y="1323.726" fill="#000" font-size="14" textLength="162.88">transactionType : Code</text><text x="1216.03" y="1340.023" fill="#000" font-size="14" textLength="159.626">transactionDate : Date</text><text x="1216.03" y="1356.319" fill="#000" font-size="14" textLength="114.051">amount : Money</text><text x="1216.03" y="1372.616" fill="#000" font-size="14" textLength="191.557">liableMemberName : Name</text><text x="1216.03" y="1388.913" fill="#000" font-size="14" textLength="170.81">description : ShortString</text></g><!--class ImageGallery--><g class="entity" data-qualified-name="ImageGallery" id="ent0014" data-source-line="162"><rect x="289.01" y="109.484" width="232.603" height="129.484" fill="#F1F1F1" style="stroke:#181818;stroke-width:0.5;" rx="2.5" ry="2.5"/><ellipse cx="354.208" cy="125.484" rx="11" ry="11" fill="#ADD1B2" style="stroke:#181818;stroke-width:1;"/><path d="M358.317,131.484 L350.598,131.484 L350.598,119.093 L358.317,119.093 L358.317,121.249 L353.052,121.249 L353.052,123.921 L357.817,123.921 L357.817,126.078 L353.052,126.078 L353.052,129.328 L358.317,129.328 L358.317,131.484 Z " fill="#000"/><text x="374.708" y="130.33" fill="#000" font-size="14" textLength="93.707">ImageGallery</text><line x1="290.01" y1="141.484" x2="520.613" y2="141.484" style="stroke:#181818;stroke-width:0.5;"/><text x="295.01" y="158.479" fill="#000" font-size="14" textLength="165.313">Foto- oder Bildergalerie</text><line x1="290.01" y1="165.781" x2="520.613" y2="165.781" style="stroke:#181818;stroke-width:1;stroke-dasharray:1,2;"/><text x="295.01" y="182.776" fill="#000" font-size="14" textLength="128.44">galleryDate : Date</text><text x="295.01" y="199.073" fill="#000" font-size="14" textLength="220.603">galleryDescription : ShortString</text><text x="295.01" y="215.369" fill="#000" font-size="14" textLength="195.289">galleryRemark : ShortString</text><text x="295.01" y="231.666" fill="#000" font-size="14" textLength="97.104">isPublic : Bool</text></g><!--class Image--><g class="entity" data-qualified-name="Image" id="ent0015" data-source-line="170"><rect x="310.37" y="519.674" width="189.878" height="178.375" fill="#F1F1F1" style="stroke:#181818;stroke-width:0.5;" rx="2.5" ry="2.5"/><ellipse cx="379.136" cy="535.674" rx="11" ry="11" fill="#ADD1B2" style="stroke:#181818;stroke-width:1;"/><path d="M383.245,541.674 L375.527,541.674 L375.527,529.283 L383.245,529.283 L383.245,531.439 L377.98,531.439 L377.98,534.111 L382.745,534.111 L382.745,536.268 L377.98,536.268 L377.98,539.518 L383.245,539.518 L383.245,541.674 Z " fill="#000"/><text x="399.636" y="540.52" fill="#000" font-size="14" textLength="43.846">Image</text><line x1="311.37" y1="551.674" x2="499.248" y2="551.674" style="stroke:#181818;stroke-width:0.5;"/><text x="316.37" y="568.669" fill="#000" font-size="14" textLength="141.777">Bild zu einer Galerie</text><line x1="311.37" y1="575.971" x2="499.248" y2="575.971" style="stroke:#181818;stroke-width:1;stroke-dasharray:1,2;"/><text x="316.37" y="592.966" fill="#000" font-size="14" textLength="177.878">imageName : ShortString</text><text x="316.37" y="609.263" fill="#000" font-size="14" textLength="104.453">imageSize : Int</text><text x="316.37" y="625.559" fill="#000" font-size="14" textLength="102.354">image : BYTEA</text><text x="316.37" y="641.856" fill="#000" font-size="14" textLength="129.739">thumbnail : BYTEA</text><text x="316.37" y="658.153" fill="#000" font-size="14" textLength="171.521">contentType : LongCode</text><text x="316.37" y="674.45" fill="#000" font-size="14" textLength="170.81">description : ShortString</text><text x="316.37" y="690.747" fill="#000" font-size="14" textLength="146.282">isGalleryCover : Bool</text></g><!--class DocumentLibrary--><g class="entity" data-qualified-name="DocumentLibrary" id="ent0016" data-source-line="181"><rect x="24.44" y="117.634" width="229.745" height="113.188" fill="#F1F1F1" style="stroke:#181818;stroke-width:0.5;" rx="2.5" ry="2.5"/><ellipse cx="74.322" cy="133.634" rx="11" ry="11" fill="#ADD1B2" style="stroke:#181818;stroke-width:1;"/><path d="M78.431,139.634 L70.712,139.634 L70.712,127.243 L78.431,127.243 L78.431,129.399 L73.166,129.399 L73.166,132.071 L77.931,132.071 L77.931,134.227 L73.166,134.227 L73.166,137.477 L78.431,137.477 L78.431,139.634 Z " fill="#000"/><text x="94.822" y="138.48" fill="#000" font-size="14" textLength="121.481">DocumentLibrary</text><line x1="25.44" y1="149.634" x2="253.185" y2="149.634" style="stroke:#181818;stroke-width:0.5;"/><text x="30.44" y="166.629" fill="#000" font-size="14" textLength="200.313">Sammlung von Dokumenten</text><line x1="25.44" y1="173.931" x2="253.185" y2="173.931" style="stroke:#181818;stroke-width:1;stroke-dasharray:1,2;"/><text x="30.44" y="190.926" fill="#000" font-size="14" textLength="217.745">libraryDescription : ShortString</text><text x="30.44" y="207.223" fill="#000" font-size="14" textLength="192.432">libraryRemark : ShortString</text><text x="30.44" y="223.519" fill="#000" font-size="14" textLength="97.104">isPublic : Bool</text></g><!--class Document--><g class="entity" data-qualified-name="Document" id="ent0017" data-source-line="188"><rect x="7" y="535.974" width="264.615" height="145.781" fill="#F1F1F1" style="stroke:#181818;stroke-width:0.5;" rx="2.5" ry="2.5"/><ellipse cx="98.793" cy="551.974" rx="11" ry="11" fill="#ADD1B2" style="stroke:#181818;stroke-width:1;"/><path d="M102.902,557.974 L95.184,557.974 L95.184,545.583 L102.902,545.583 L102.902,547.739 L97.637,547.739 L97.637,550.411 L102.402,550.411 L102.402,552.568 L97.637,552.568 L97.637,555.818 L102.902,555.818 L102.902,557.974 Z " fill="#000"/><text x="119.293" y="556.82" fill="#000" font-size="14" textLength="72.529">Document</text><line x1="8" y1="567.974" x2="270.615" y2="567.974" style="stroke:#181818;stroke-width:0.5;"/><text x="13" y="584.969" fill="#000" font-size="14" textLength="252.615">Dokument - PDF erlauben, sonst nix</text><line x1="8" y1="592.271" x2="270.615" y2="592.271" style="stroke:#181818;stroke-width:1;stroke-dasharray:1,2;"/><text x="13" y="609.266" fill="#000" font-size="14" textLength="204.907">documentName : ShortString</text><text x="13" y="625.563" fill="#000" font-size="14" textLength="131.482">documentSize : Int</text><text x="13" y="641.859" fill="#000" font-size="14" textLength="173.592">documentDData : BYTEA</text><text x="13" y="658.156" fill="#000" font-size="14" textLength="171.521">contentType : LongCode</text><text x="13" y="674.453" fill="#000" font-size="14" textLength="170.81">description : ShortString</text></g><!--class Accountable--><g class="entity" data-qualified-name="Accountable" id="ent0018" data-source-line="198"><rect x="1314.81" y="929.874" width="266.994" height="227.266" fill="#F1F1F1" style="stroke:#181818;stroke-width:0.5;" rx="2.5" ry="2.5"/><ellipse cx="1400.686" cy="945.874" rx="11" ry="11" fill="#B4A7E5" style="stroke:#181818;stroke-width:1;"/><path d="M1396.608,941.639 L1396.608,939.483 L1403.999,939.483 L1403.999,941.639 L1401.53,941.639 L1401.53,949.718 L1403.999,949.718 L1403.999,951.874 L1396.608,951.874 L1396.608,949.718 L1399.077,949.718 L1399.077,941.639 L1396.608,941.639 Z " fill="#000"/><text x="1421.186" y="950.72" fill="#000" font-size="14" textLength="86.741" font-style="italic">Accountable</text><line x1="1315.81" y1="961.874" x2="1580.804" y2="961.874" style="stroke:#181818;stroke-width:0.5;"/><text x="1320.81" y="978.869" fill="#000" font-size="14" textLength="222.1">Interface für alles was verbucht</text><text x="1320.81" y="995.166" fill="#000" font-size="14" textLength="155.148">wird (Zeitscheck kauf,</text><text x="1320.81" y="1011.463" fill="#000" font-size="14" textLength="117.298">Mitgliedschaft...)</text><line x1="1315.81" y1="1018.764" x2="1580.804" y2="1018.764" style="stroke:#181818;stroke-width:1;stroke-dasharray:1,2;"/><text x="1320.81" y="1035.759" fill="#000" font-size="14" textLength="208.188">String getAccountableName()</text><text x="1320.81" y="1052.056" fill="#000" font-size="14" textLength="172.245">Long getAccountableId()</text><text x="1320.81" y="1068.353" fill="#000" font-size="14" textLength="229.831">Long getAccountableMemberId()</text><text x="1320.81" y="1084.65" fill="#000" font-size="14" textLength="196.629">String getTransactionType()</text><text x="1320.81" y="1100.947" fill="#000" font-size="14" textLength="223.966">LocalDate getTransactionDate()</text><text x="1320.81" y="1117.244" fill="#000" font-size="14" textLength="254.994">BigDecimal getTransactionAmount()</text><text x="1320.81" y="1133.541" fill="#000" font-size="14" textLength="220.691">String getLiableMemberName()</text><text x="1320.81" y="1149.838" fill="#000" font-size="14" textLength="219.789">String getTransactionISODate()</text></g><!--reverse link Role to Member--><g class="link" data-entity-1="ent0003" data-entity-2="ent0008" id="lnk20" data-source-line="213" data-link-type="dependency"><path d="M957.31,293.334 C957.31,317.114 957.31,338.074 957.31,364.584" style="stroke:#181818;stroke-width:1;stroke-dasharray:7,7;" fill="none" id="Role-backto-Member" codeLine="213"/><polygon points="957.31,288.334,953.31,297.334,957.31,293.334,961.31,297.334,957.31,288.334" fill="#181818" style="stroke:#181818;stroke-width:1;stroke-linejoin:miter;stroke-miterlimit:10;"/><text x="958.31" y="330.921" fill="#000" font-size="13" textLength="24.908">role</text></g><!--reverse link Member to MembershipFee--><g class="link" data-entity-1="ent0008" data-entity-2="ent0009" id="lnk22" data-source-line="214" data-link-type="dependency"><path d="M940.231,858.224 C939.291,954.134 945.52,1059.494 969.31,1157.134 C975.62,1183.054 986.43,1209.634 998.14,1233.694" style="stroke:#181818;stroke-width:1;" fill="none" id="Member-backto-MembershipFee" codeLine="214"/><polygon points="940.28,853.224,936.192,862.184,940.231,858.224,944.192,862.263,940.28,853.224" fill="#181818" style="stroke:#181818;stroke-width:1;stroke-linejoin:miter;stroke-miterlimit:10;"/><text x="970.31" y="1048.071" fill="#000" font-size="13" textLength="54.92">member</text></g><!--reverse link AccountingEntry to MembershipFee--><g class="link" data-entity-1="ent0012" data-entity-2="ent0009" id="lnk24" data-source-line="215" data-link-type="dependency"><path d="M1117.645,1153.787 C1106.525,1181.627 1096.47,1206.784 1085.73,1233.674" style="stroke:#181818;stroke-width:1;stroke-dasharray:7,7;" fill="none" id="AccountingEntry-backto-MembershipFee" codeLine="215"/><polygon points="1119.5,1149.144,1112.447,1156.018,1117.645,1153.787,1119.876,1158.985,1119.5,1149.144" fill="#181818" style="stroke:#181818;stroke-width:1;stroke-linejoin:miter;stroke-miterlimit:10;"/><text x="1104.31" y="1200.201" fill="#000" font-size="13" textLength="84.652">accountedBy</text></g><!--reverse link Accountable to MembershipFee--><g class="link" data-entity-1="ent0018" data-entity-2="ent0009" id="lnk26" data-source-line="216" data-link-type="extension"><path d="M1299.75,1155.474 C1294,1159.604 1302.92,1153.174 1297.31,1157.134 C1258.23,1184.754 1215.05,1214.044 1175.86,1240.164" style="stroke:#181818;stroke-width:1;" fill="none" id="Accountable-backto-MembershipFee" codeLine="216"/><polygon points="1314.37,1144.974,1296.25,1150.601,1303.251,1160.348,1314.37,1144.974" fill="none" style="stroke:#181818;stroke-width:1;stroke-linejoin:miter;stroke-miterlimit:10;"/></g><!--reverse link Offer to TimeTransfer--><g class="link" data-entity-1="ent0002" data-entity-2="ent0010" id="lnk28" data-source-line="217" data-link-type="dependency"><path d="M649.706,679.012 C644.156,738.512 641.31,824.054 660.31,899.874 C667.11,927.014 680.04,954.714 693.27,978.394" style="stroke:#181818;stroke-width:1;" fill="none" id="Offer-backto-TimeTransfer" codeLine="217"/><polygon points="650.17,674.034,645.351,682.623,649.706,679.012,653.317,683.366,650.17,674.034" fill="#181818" style="stroke:#181818;stroke-width:1;stroke-linejoin:miter;stroke-miterlimit:10;"/><text x="661.31" y="895.941" fill="#000" font-size="13" textLength="30.45">offer</text></g><!--reverse link Member to TimeTransfer--><g class="link" data-entity-1="ent0008" data-entity-2="ent0010" id="lnk30" data-source-line="218" data-link-type="dependency"><path d="M830.078,857.822 C806.318,904.132 785.7,944.294 768.12,978.554" style="stroke:#181818;stroke-width:1;" fill="none" id="Member-backto-TimeTransfer" codeLine="218"/><polygon points="832.36,853.374,824.693,859.555,830.078,857.822,831.811,863.207,832.36,853.374" fill="#181818" style="stroke:#181818;stroke-width:1;stroke-linejoin:miter;stroke-miterlimit:10;"/><text x="815.31" y="895.941" fill="#000" font-size="13" textLength="84.011">fromMember</text></g><!--reverse link Member to TimeTransfer--><g class="link" data-entity-1="ent0008" data-entity-2="ent0010" id="lnk32" data-source-line="219" data-link-type="dependency"><path d="M812.64,840.435 C807.16,845.995 805.05,847.784 799.31,852.874 C776.71,872.924 754.52,857.374 738.31,882.874 C720.54,910.824 718.7,947.464 721.8,978.594" style="stroke:#181818;stroke-width:1;" fill="none" id="Member-backto-TimeTransfer-1" codeLine="219"/><polygon points="816.15,836.874,806.983,840.476,812.64,840.435,812.681,846.092,816.15,836.874" fill="#181818" style="stroke:#181818;stroke-width:1;stroke-linejoin:miter;stroke-miterlimit:10;"/><text x="739.31" y="895.941" fill="#000" font-size="13" textLength="66.523">toMember</text></g><!--reverse link Member to TimeCheque--><g class="link" data-entity-1="ent0008" data-entity-2="ent0011" id="lnk34" data-source-line="220" data-link-type="dependency"><path d="M1102.324,843.823 C1107.794,848.143 1109.5,849.104 1115.31,852.874 C1206.64,912.194 1524.29,850.924 1599.31,929.874 C1677.77,1012.464 1672.04,1153.294 1658.37,1241.894" style="stroke:#181818;stroke-width:1;" fill="none" id="Member-backto-TimeCheque" codeLine="220"/><polygon points="1098.4,840.724,1102.984,849.441,1102.324,843.823,1107.942,843.163,1098.4,840.724" fill="#181818" style="stroke:#181818;stroke-width:1;stroke-linejoin:miter;stroke-miterlimit:10;"/><text x="1667.31" y="1048.071" fill="#000" font-size="13" textLength="73.76">assignedTo</text></g><!--reverse link AccountingEntry to TimeCheque--><g class="link" data-entity-1="ent0012" data-entity-2="ent0011" id="lnk36" data-source-line="221" data-link-type="dependency"><path d="M1284.061,1148.976 C1289.841,1152.826 1291.5,1153.714 1297.31,1157.134 C1378.31,1204.834 1409.93,1192.704 1494.31,1234.134 C1499.78,1236.824 1505.33,1239.654 1510.89,1242.574" style="stroke:#181818;stroke-width:1;stroke-dasharray:7,7;" fill="none" id="AccountingEntry-backto-TimeCheque" codeLine="221"/><polygon points="1279.9,1146.204,1285.173,1154.522,1284.061,1148.976,1289.608,1147.864,1279.9,1146.204" fill="#181818" style="stroke:#181818;stroke-width:1;stroke-linejoin:miter;stroke-miterlimit:10;"/><text x="1416.31" y="1200.201" fill="#000" font-size="13" textLength="84.652">accountedBy</text></g><!--reverse link Accountable to TimeCheque--><g class="link" data-entity-1="ent0018" data-entity-2="ent0011" id="lnk38" data-source-line="222" data-link-type="extension"><path d="M1578.014,1171.544 C1585.764,1181.204 1581.8,1177.094 1588.31,1187.134 C1599.2,1203.964 1608.44,1223.374 1616.01,1242.144" style="stroke:#181818;stroke-width:1;" fill="none" id="Accountable-backto-TimeCheque" codeLine="222"/><polygon points="1566.75,1157.504,1573.334,1175.298,1582.694,1167.789,1566.75,1157.504" fill="none" style="stroke:#181818;stroke-width:1;stroke-linejoin:miter;stroke-miterlimit:10;"/></g><!--reverse link Member to AccountingEntry--><g class="link" data-entity-1="ent0008" data-entity-2="ent0012" id="lnk40" data-source-line="223" data-link-type="dependency"><path d="M1074.262,857.897 C1088.162,887.387 1099.62,911.674 1111.82,937.564" style="stroke:#181818;stroke-width:1;stroke-dasharray:7,7;" fill="none" id="Member-backto-AccountingEntry" codeLine="223"/><polygon points="1072.13,853.374,1072.349,863.22,1074.262,857.897,1079.585,859.809,1072.13,853.374" fill="#181818" style="stroke:#181818;stroke-width:1;stroke-linejoin:miter;stroke-miterlimit:10;"/><text x="1091.31" y="895.941" fill="#000" font-size="13" textLength="133.091">accountableMember</text></g><!--reverse link AccountingEntry to Transaction--><g class="link" data-entity-1="ent0012" data-entity-2="ent0013" id="lnk42" data-source-line="224" data-link-type="dependency"><path d="M1232.59,1153.326 C1254.66,1187.006 1275.87,1219.384 1296.05,1250.184" style="stroke:#181818;stroke-width:1;stroke-dasharray:7,7;" fill="none" id="AccountingEntry-backto-Transaction" codeLine="224"/><polygon points="1229.85,1149.144,1231.437,1158.864,1232.59,1153.326,1238.129,1154.479,1229.85,1149.144" fill="#181818" style="stroke:#181818;stroke-width:1;stroke-linejoin:miter;stroke-miterlimit:10;"/><text x="1263.31" y="1200.201" fill="#000" font-size="13" textLength="84.652">accountedBy</text></g><!--reverse link Accountable to Transaction--><g class="link" data-entity-1="ent0018" data-entity-2="ent0013" id="lnk44" data-source-line="225" data-link-type="extension"><path d="M1430.411,1174.842 C1426.751,1190.862 1426.14,1189.354 1420.31,1204.134 C1414.16,1219.744 1405.78,1235.464 1396.82,1250.114" style="stroke:#181818;stroke-width:1;" fill="none" id="Accountable-backto-Transaction" codeLine="225"/><polygon points="1434.42,1157.294,1424.562,1173.505,1436.26,1176.178,1434.42,1157.294" fill="none" style="stroke:#181818;stroke-width:1;stroke-linejoin:miter;stroke-miterlimit:10;"/></g><!--reverse link ImageGallery to Image--><g class="link" data-entity-1="ent0014" data-entity-2="ent0015" id="lnk46" data-source-line="226" data-link-type="dependency"><path d="M405.31,244.064 C405.31,318.224 405.31,436.024 405.31,519.364" style="stroke:#181818;stroke-width:1;" fill="none" id="ImageGallery-backto-Image" codeLine="226"/><polygon points="405.31,239.064,401.31,248.064,405.31,244.064,409.31,248.064,405.31,239.064" fill="#181818" style="stroke:#181818;stroke-width:1;stroke-linejoin:miter;stroke-miterlimit:10;"/><text x="406.31" y="330.921" fill="#000" font-size="13" textLength="66.974">belongsTo</text></g><!--reverse link DocumentLibrary to Document--><g class="link" data-entity-1="ent0016" data-entity-2="ent0017" id="lnk48" data-source-line="227" data-link-type="dependency"><path d="M139.31,235.904 C139.31,313.724 139.31,450.094 139.31,535.844" style="stroke:#181818;stroke-width:1;" fill="none" id="DocumentLibrary-backto-Document" codeLine="227"/><polygon points="139.31,230.904,135.31,239.904,139.31,235.904,143.31,239.904,139.31,230.904" fill="#181818" style="stroke:#181818;stroke-width:1;stroke-linejoin:miter;stroke-miterlimit:10;"/><text x="140.31" y="330.921" fill="#000" font-size="13" textLength="66.974">belongsTo</text></g><g class="legend" data-source-line="231"><rect x="830.881" y="1433.509" width="339.403" height="335.938" fill="#DDD" style="stroke:#000;stroke-width:1;" rx="7.5" ry="7.5"/><text x="835.881" y="1451.504" fill="#000" font-size="14" textLength="266.567" font-weight="700">Definition of the used Data-Types</text><text x="835.881" y="1467.801" fill="#000" font-size="14"> </text><text x="835.881" y="1484.098" fill="#000" font-size="14" textLength="161.451">BYTEA : BYTEA (byte[])</text><text x="835.881" y="1500.394" fill="#000" font-size="14" textLength="184.646">Bool : BOOLEAN (Boolean)</text><text x="835.881" y="1516.691" fill="#000" font-size="14" textLength="203.841">Code : VARCHAR(10) (String)</text><text x="835.881" y="1532.988" fill="#000" font-size="14" textLength="170.201">Date : DATE (LocalDate)</text><text x="835.881" y="1549.285" fill="#000" font-size="14" textLength="329.403">DoublePrecision : DOUBLE PRECISION (Double)</text><text x="835.881" y="1565.582" fill="#000" font-size="14" textLength="125.761">ID : BIGINT (Long)</text><text x="835.881" y="1581.879" fill="#000" font-size="14" textLength="159.264">Int : INTEGER (Integer)</text><text x="835.881" y="1598.176" fill="#000" font-size="14" textLength="237.966">LongCode : VARCHAR(20) (String)</text><text x="835.881" y="1614.473" fill="#000" font-size="14" textLength="261.721">LongString : VARCHAR(4000) (String)</text><text x="835.881" y="1630.769" fill="#000" font-size="14" textLength="262.247">Money : NUMERIC(12,2) (BigDecimal)</text><text x="835.881" y="1647.066" fill="#000" font-size="14" textLength="209.303">Name : VARCHAR(80) (String)</text><text x="835.881" y="1663.363" fill="#000" font-size="14" textLength="229.975">Number : NUMERIC (BigDecimal)</text><text x="835.881" y="1679.66" fill="#000" font-size="14" textLength="186.218">Short : SMALLINT (Integer)</text><text x="835.881" y="1695.957" fill="#000" font-size="14" textLength="256.259">ShortString : VARCHAR(250) (String)</text><text x="835.881" y="1712.254" fill="#000" font-size="14" textLength="137.252">Text : TEXT (String)</text><text x="835.881" y="1728.551" fill="#000" font-size="14" textLength="168.513">Time : TIME (LocalTime)</text><text x="835.881" y="1744.848" fill="#000" font-size="14" textLength="293.398">Timestamp : TIMESTAMP (LocalDateTime)</text><text x="835.881" y="1761.144" fill="#000" font-size="14" textLength="158.614">YEAR : INTEGER (Year)</text></g><?plantuml-src jLdDSkCs4hxhAR2djQOinUDDKYaTfehwiKSrbkooD9DCjlO0aIqICGbe0T0UEpjliiSynjxcnROR82MI9XrbDgkBPFO7e7-_Rj1_pGsmnDgT6Ntp3KJ2AZtSfLpQF4k7eSgOLImI1XyzuZUFDSzw-B72fj1RZj-ocSJVZsoX8aZJtYL8q0AqPPcmx2SBdooRSikT63JZ6Ji_E_z-SFR3uEnRbcVizVUZrz-D_dRM0ndvJV6Nsp4mHeM2Mw4a-xN7y3FcHXWXjqfdxZ58zeHRV00DGfwoY3lK5fBKCYF21C-JAamOIaKCvfGzZHt2Bp0opp9IAJSiWgmgqH0BOq6xPyEX-_frAo2DFZF9Cs0ZjiIlslCice89jTWvXKTiZQRN08dDqj-16Ai1RDlkgEi6THsnAoNZ2Jgp9dqIEnGzUnoI6ulDFfTklTvkSIFlq436i54Mq7xD5iB6gG3yUSeUX8xO1eH3aH0Tiyd399SnkqVTVmPX3Jeul3CESW_w0GC8jirZ8UhLfbvKSyOgKTgkh1OoFYXxgr8eTCMVAGPSbF4UiY__9fT40WgPWps0ZX36KLad6YCuJAo8KVK2WigYsI27RSeACrPSHmie_3rMAcq0rXguoNMNU0MX1ilrOxiuo5sHTMmjCdW7iElQEuWo8Tj52s52h40kGM52jq0q-d9PITwzauDCvT9ELSQ5_C3JlFJu1G-JbCg8tIcvHGzIOM-u1dR3aGQWB93jb_zezavXmSXz4XbC7gjvp33e7bL9cI6Ree6K3pxHq2GCQ562i-Nx1QR65ciMQUI5V6gj1EviGUa2wU6n9hhdgOWkD5BQY2W9dWlNgXJjVJExnn-5FzQWqVl0SXbH3d9fB4-jowjJbkN6bu9Z7EIK6BWc9s0z-vpyIvij4Pxsx53YXOcIjdhq9yGvHrDIlxqPifdUScEe87dgJrvmVJTL3wWCHvsUGCJM-pV2SEKU4vVy38QzNI-kslthZfwyuEOi8eswMAugEvIourJjYDjjxIsR2PdnT41FpC700eoAee4EH-raDbXmaJh_4txuHyW6CbhQmgpmQISqcC1fZEM7GSrsDSGMLq8KM0lPpb9fpMN5he8fl3LJrFt0eyHmPKiPagN-v7sD50s8KeV8bYqXvpBbiOVnt2hgSrWqUyegKgdLyimfiimskb2nrbcmhYqlgBOrfAxvTWdH09JdnVfdFjmARUooep6cl5ks4TecrHeuAcIx18jx-M97t65jF2ZC_NfZgK9-KKWnCfvsd8uv8MBfNDO5-TfsZIacEeMHKlzBdwzxdeBcwc6gyaqADzWBSO9IiWx3eux1HLWdePt2HjWWj-XLyLHcL4i_ccSxz3kys4bNZzWqiY0C2z9-1k5Xc6SvsW7HMvNhZk8pYTXTGCaeKtMNPoZtkb49_lBbjqIxJYRh1LWqgI5R4vlpa5Qi7tVUYqX0E6rGWSwNa-l5hAtcS1JzY3oFQdsS1RUDE2wLdIGS2xVDCdiuiIkzNkXbgU0O9czzQqyd9dD67OOzQi1nJZrOYwrrOrpf21PWowYvXeqz6MF3rpW6e89NW0v1DXvsjR7hxGhqlGXRRKcAwBbYh9UASjQtZdzanII1V-v7aiCGmGOu-sFehMjsAM2lmxxWvrKk9JExBx_XW4BCIOChsPknTyWAs5EyxesO7nNlRZF-p_4iQWIzW_Sj72sB2v4VoGsv7q-tJ-YJXfy6xtY-FJsaV9ZmhJrre1z199A2Qy0Occ5oyz0QNUuF9nMxYBm2cHFfpgTTtd6-RY6n8nnOWGJTlkHxLtNjSyJ5ev8SvLqfJMF8Q4wbJYvvWewWuPO5EEln3RGvxiyn-olovWzQEyzmwBZaU8dQfzQ5ichW3HoB5BzYdjBas6Pcx5TswL-AE_Le0TzYyzTtB-24kS5E9SAIM-ksbFM1ccD9kDk5PfVT5WXQL3YmyqJ2hCGJj8nNJaQgV5pFWdfy4nm5f1zadakBKRj8ZlPvu2Yt2LE4RwBk3zrsxvIf2brFl198v_iOhtYMfUMLlcoRHOziE2Zr2u-BOG7--XYMwZOwEdB-pVG2UrBAymqHbb4ubp8fFhNsf6AJtmbh2Uk8R2cUqbkiFp-6dtizWSlnBeTzCpYGQ67vV2zptPX2RDW3D_ksvjzvq2NlfD8RxuZpwwEEu_tXSDYlkGelyOb21RqsU3kqGPthJ_fr89dNWCsZ8q2Uefv33mStsl7pFKEUEeQfO-bH4piMyHG7MBnNDi2-QtJhSDMWqwEqdQ-k2oKmcCMqEyntmpV-xTN8lNZfrIVLGRuRl67xqTXVtHeOlqUpyO_A_WRH-B5brt-zgQPHhpO7-bFz2y0HK_JT1jYhjTKgyt-y2BEg0Yh6jGQ4vgvOGhHMLT0n5ZRsR9ZNNEjtF1pRJC1UjQyVTNm5ttA-RpRUs5eJ7U65dkvL1YtUivd7DRcu2iKFZhA0W-ohLrFt3ioThBROHm3dCnpCYOS6L27crQjUpz5HIKliPFDeuU__wFU8JkdfzVNLB5Yo4_eRkEptYfSw7uBRoTlWzkJrMP-T-Apkzyh-7Qndx6HVR_YyVYSaoFNxyTMCtTpE9lFL_1eFy9X-RpwbO-UNy-MQzg1jvsvsmGUpozajEo5AYq7tUoLJLjGvhwf3ygBW3eXlpywg63SHqT3pVZ6xdKzENf-VdgFuG03zNa7_vGO_L9Vlto4Kw-ih7KyJNo-2gojdq5xt2eLNrV-kkddv5cpsqxhoK3XjrlD5wMDwuf-xDq-5SBKE5ZULA7WKNJAhlgIxPv_-S-AJvhy0?></g></svg>